<svg width="20" height="18" viewBox="0 0 20 18" fill="none" xmlns="http://www.w3.org/2000/svg">
<path d="M18.4847 0.243408H1.01282C0.641119 0.243408 0.34082 0.591304 0.34082 1.02192V16.5921C0.34082 17.0227 0.641119 17.3706 1.01282 17.3706H18.4847C18.8564 17.3706 19.1567 17.0227 19.1567 16.5921V1.02192C19.1567 0.591304 18.8564 0.243408 18.4847 0.243408ZM16.7879 2.89277L10.1625 8.86539C9.99868 9.0138 9.76978 9.0138 9.60598 8.86539L2.97841 2.89277C2.95343 2.87043 2.9351 2.8396 2.926 2.80459C2.91691 2.76958 2.91749 2.73215 2.92768 2.69755C2.93787 2.66295 2.95715 2.63291 2.98281 2.61163C3.00848 2.59036 3.03925 2.57893 3.07081 2.57893H16.6955C16.7271 2.57893 16.7579 2.59036 16.7835 2.61163C16.8092 2.63291 16.8285 2.66295 16.8387 2.69755C16.8489 2.73215 16.8495 2.76958 16.8404 2.80459C16.8313 2.8396 16.8129 2.87043 16.7879 2.89277V2.89277Z" fill="#E30808"/>
</svg>
