<svg width="23" height="26" viewBox="0 0 23 26" fill="none" xmlns="http://www.w3.org/2000/svg">
<path d="M11.7488 1.97803C6.5534 1.97803 2.34082 6.8583 2.34082 12.8771C2.34082 18.896 6.5534 23.7763 11.7488 23.7763C16.9442 23.7763 21.1567 18.896 21.1567 12.8771C21.1567 6.8583 16.9442 1.97803 11.7488 1.97803ZM16.2701 10.1937C16.2764 10.3081 16.2764 10.4273 16.2764 10.5441C16.2764 14.1155 13.9286 18.2294 9.63829 18.2294C8.31529 18.2294 7.0889 17.7842 6.0557 17.0178C6.2447 17.0422 6.4253 17.0519 6.6185 17.0519C7.7105 17.0519 8.71429 16.6237 9.51439 15.8987C8.48959 15.8744 7.6286 15.0959 7.3346 14.0254C7.6937 14.0863 8.0171 14.0863 8.38669 13.9768C7.85902 13.8526 7.38474 13.5206 7.04441 13.0372C6.70409 12.5538 6.51872 11.9488 6.5198 11.325V11.2909C6.8285 11.4929 7.1918 11.6169 7.5719 11.634C7.25237 11.3873 6.99032 11.053 6.80899 10.6609C6.62767 10.2688 6.53266 9.83087 6.5324 9.38602C6.5324 8.88243 6.6458 8.42262 6.8495 8.02363C7.43519 8.85892 8.16605 9.54207 8.99457 10.0287C9.82308 10.5153 10.7307 10.7945 11.6585 10.8482C11.3288 9.01137 12.5132 7.5249 13.937 7.5249C14.609 7.5249 15.2138 7.8509 15.6401 8.3764C16.1672 8.26205 16.6712 8.03337 17.1206 7.72683C16.9463 8.35207 16.5809 8.87999 16.0958 9.21329C16.5662 9.1549 17.0198 9.00407 17.4398 8.79241C17.1227 9.3325 16.7258 9.81177 16.2701 10.1937Z" fill="#E30808"/>
</svg>
