<svg width="19" height="21" viewBox="0 0 19 21" fill="none" xmlns="http://www.w3.org/2000/svg">
<path d="M9.7262 0.617188C4.90294 0.617188 0.990234 5.14762 0.990234 10.7378C0.990234 16.328 4.90126 20.8584 9.7262 20.8584C14.5511 20.8584 18.4622 16.3275 18.4622 10.7378C18.4622 5.14811 14.5499 0.617188 9.7262 0.617188ZM14.9686 10.5072C14.8489 12.0948 14.2634 12.9254 13.7926 13.3419C13.3218 13.7584 12.7565 13.9414 12.2689 13.8402C12.0429 13.7933 11.8271 13.6953 11.6338 13.5518C11.4405 13.4083 11.2736 13.222 11.1424 13.0037C10.6483 13.5606 9.98378 13.868 9.29444 13.8586C8.99008 13.8614 8.68863 13.7898 8.40969 13.6488C8.13075 13.5077 7.88055 13.3002 7.67535 13.0398C7.19739 12.4354 6.96135 11.5625 7.03191 10.6444C7.15791 8.94139 8.33012 7.85197 9.42044 7.65296C10.5628 7.44422 11.6141 7.97118 12.0622 8.59982L12.2239 8.82656L11.9576 11.2779C11.9077 11.9756 12.0954 12.4204 12.4738 12.4992C12.5742 12.5196 12.814 12.4929 13.0774 12.2593C13.3596 12.0087 13.7132 11.4808 13.7956 10.3875C13.8943 9.09612 13.6129 7.99404 12.9871 7.20094C12.3365 6.37864 11.3453 5.94365 10.1214 5.94365C7.85342 5.94365 5.84541 8.10547 5.64507 10.7607C5.54931 12.0355 5.88321 13.2266 6.58587 14.1146C7.27299 14.9836 8.23688 15.4643 9.30158 15.4643C10.0996 15.4643 10.5872 15.3646 11.3797 15.0371C11.5267 14.9765 11.6884 14.9859 11.8293 15.0634C11.9702 15.1409 12.0788 15.28 12.1311 15.4502C12.1835 15.6204 12.1753 15.8078 12.1084 15.971C12.0416 16.1342 11.9215 16.26 11.7745 16.3207C10.8581 16.6987 10.234 16.8267 9.30158 16.8267C7.90382 16.8267 6.63165 16.1913 5.71899 15.0376C4.7929 13.8645 4.34854 12.3046 4.4737 10.6444C4.59592 9.02265 5.2486 7.49969 6.31203 6.35674C7.37547 5.21379 8.72996 4.58126 10.1214 4.58126C11.6838 4.58126 12.9745 5.16903 13.8539 6.28084C14.6977 7.34691 15.0934 8.84748 14.9686 10.5072Z" fill="#E30808"/>
</svg>
