<svg width="23" height="25" viewBox="0 0 23 25" fill="none" xmlns="http://www.w3.org/2000/svg">
<path d="M14.6586 16.7925L16.1638 15.0487C16.3666 14.8167 16.6231 14.6579 16.9022 14.5916C17.1814 14.5252 17.4711 14.5542 17.7363 14.675L19.5709 15.5235C19.8389 15.6496 20.0687 15.8647 20.2313 16.1418C20.3939 16.4188 20.4821 16.7455 20.4848 17.0806V20.9731C20.4832 21.201 20.4419 21.4262 20.3632 21.6352C20.2845 21.8441 20.1702 22.0324 20.027 22.1888C19.8839 22.3452 19.7149 22.4664 19.5303 22.5451C19.3456 22.6238 19.1491 22.6585 18.9526 22.6469C6.09732 21.7205 3.50341 9.10863 3.01286 4.28188C2.99008 4.04485 3.01089 3.80492 3.07391 3.57788C3.13692 3.35084 3.24072 3.14182 3.37847 2.96459C3.51622 2.78736 3.6848 2.64592 3.87312 2.54959C4.06144 2.45326 4.26523 2.40421 4.47109 2.40567H7.71684C8.00647 2.40666 8.28923 2.50802 8.52874 2.6967C8.76825 2.88538 8.95356 3.15276 9.06083 3.46444L9.79331 5.58977C9.901 5.89578 9.92847 6.23176 9.8723 6.55576C9.81613 6.87975 9.6788 7.17738 9.47747 7.41148L7.97219 9.15534C7.97219 9.15534 8.83907 15.9517 14.6586 16.7925Z" fill="#E30808"/>
</svg>
