<svg width="720" height="650" viewBox="0 0 720 650" fill="none" xmlns="http://www.w3.org/2000/svg">
<g clip-path="url(#clip0_4_90)">
<path d="M480.506 228.558H239.713C235.58 228.553 231.617 226.913 228.694 223.998C225.771 221.084 224.127 217.132 224.123 213.009V24.4005C224.126 21.3805 225.33 18.4851 227.472 16.3496C229.613 14.2141 232.516 13.0128 235.544 13.0093H484.477C487.557 13.0128 490.511 14.2349 492.689 16.4073C494.867 18.5797 496.093 21.5251 496.096 24.5974V213.009C496.091 217.132 494.447 221.084 491.525 223.998C488.602 226.913 484.639 228.553 480.506 228.558Z" fill="#F2F2F2"/>
<path d="M254.831 213.009H465.387C469.397 213.009 473.242 211.421 476.078 208.593C478.913 205.766 480.505 201.931 480.505 197.932V53.2411C480.505 49.2424 478.913 45.4074 476.078 42.5799C473.242 39.7524 469.397 38.1639 465.387 38.1639H254.831C250.822 38.1639 246.976 39.7524 244.141 42.5799C241.306 45.4074 239.713 49.2424 239.713 53.2411V197.932C239.713 201.931 241.306 205.766 244.141 208.593C246.976 211.421 250.822 213.009 254.831 213.009Z" fill="white"/>
<path d="M495.879 23.5111H223.904V15.5952C223.91 11.4593 225.561 7.49459 228.494 4.57094C231.428 1.64729 235.404 0.00342946 239.551 0H480.232C484.379 0.00339707 488.355 1.64725 491.289 4.5709C494.222 7.49456 495.873 11.4593 495.879 15.5952V23.5111Z" fill="#CCCCCC"/>
<path d="M252.34 15.8153C254.576 15.8153 256.388 14.0082 256.388 11.779C256.388 9.54975 254.576 7.74261 252.34 7.74261C250.105 7.74261 248.293 9.54975 248.293 11.779C248.293 14.0082 250.105 15.8153 252.34 15.8153Z" fill="white"/>
<path d="M267.703 15.8153C269.938 15.8153 271.75 14.0082 271.75 11.779C271.75 9.54975 269.938 7.74261 267.703 7.74261C265.468 7.74261 263.656 9.54975 263.656 11.779C263.656 14.0082 265.468 15.8153 267.703 15.8153Z" fill="white"/>
<path d="M283.066 15.8153C285.301 15.8153 287.113 14.0082 287.113 11.779C287.113 9.54975 285.301 7.74261 283.066 7.74261C280.83 7.74261 279.018 9.54975 279.018 11.779C279.018 14.0082 280.83 15.8153 283.066 15.8153Z" fill="white"/>
<path d="M270.326 105.97H259.898C259.333 105.969 258.79 105.745 258.391 105.346C257.991 104.947 257.766 104.406 257.765 103.842V93.4429C257.766 92.8789 257.991 92.3382 258.391 91.9395C258.79 91.5407 259.333 91.3164 259.898 91.3157H270.326C270.891 91.3164 271.434 91.5407 271.833 91.9395C272.233 92.3383 272.458 92.8789 272.459 93.4429V103.842C272.458 104.406 272.233 104.947 271.833 105.346C271.434 105.745 270.891 105.969 270.326 105.97Z" fill="#EF0F2A"/>
<path d="M270.326 132.914H259.898C259.333 132.913 258.79 132.689 258.391 132.29C257.991 131.891 257.766 131.35 257.765 130.786V120.387C257.766 119.823 257.991 119.282 258.391 118.883C258.79 118.485 259.333 118.26 259.898 118.26H270.326C270.891 118.26 271.434 118.485 271.833 118.883C272.233 119.282 272.458 119.823 272.459 120.387V130.786C272.458 131.35 272.233 131.891 271.833 132.29C271.434 132.689 270.891 132.913 270.326 132.914Z" fill="#3F3D56"/>
<path d="M270.326 159.858H259.898C259.333 159.857 258.79 159.633 258.391 159.234C257.991 158.835 257.766 158.294 257.765 157.73V147.331C257.766 146.767 257.991 146.226 258.391 145.828C258.79 145.429 259.333 145.204 259.898 145.204H270.326C270.891 145.204 271.434 145.429 271.833 145.828C272.233 146.226 272.458 146.767 272.459 147.331V157.73C272.458 158.294 272.233 158.835 271.833 159.234C271.434 159.633 270.891 159.857 270.326 159.858Z" fill="#CCCCCC"/>
<path d="M338.58 100.77H288.337C287.772 100.769 287.231 100.544 286.832 100.145C286.433 99.7464 286.209 99.206 286.209 98.6426C286.209 98.0792 286.433 97.5389 286.832 97.1401C287.231 96.7413 287.772 96.5166 288.337 96.5154H338.58C338.861 96.5149 339.138 96.5694 339.398 96.6761C339.657 96.7827 339.893 96.9393 340.091 97.1369C340.29 97.3345 340.447 97.5692 340.555 97.8275C340.662 98.0859 340.717 98.3629 340.717 98.6426C340.717 98.9223 340.662 99.1993 340.555 99.4577C340.447 99.716 340.29 99.9507 340.091 100.148C339.893 100.346 339.657 100.502 339.398 100.609C339.138 100.716 338.861 100.77 338.58 100.77Z" fill="#CCCCCC"/>
<path d="M338.58 127.714H288.337C287.772 127.713 287.231 127.488 286.832 127.089C286.433 126.69 286.209 126.15 286.209 125.587C286.209 125.023 286.433 124.483 286.832 124.084C287.231 123.685 287.772 123.461 288.337 123.459H338.58C339.146 123.459 339.688 123.684 340.088 124.082C340.488 124.481 340.713 125.022 340.713 125.587C340.713 126.151 340.488 126.692 340.088 127.091C339.688 127.49 339.146 127.714 338.58 127.714Z" fill="#CCCCCC"/>
<path d="M338.58 154.658H288.337C287.772 154.657 287.231 154.432 286.832 154.033C286.433 153.634 286.209 153.094 286.209 152.531C286.209 151.967 286.433 151.427 286.832 151.028C287.231 150.629 287.772 150.405 288.337 150.404H338.58C338.861 150.403 339.138 150.458 339.398 150.564C339.657 150.671 339.893 150.827 340.091 151.025C340.29 151.223 340.447 151.457 340.555 151.716C340.662 151.974 340.717 152.251 340.717 152.531C340.717 152.81 340.662 153.087 340.555 153.346C340.447 153.604 340.29 153.839 340.091 154.036C339.893 154.234 339.657 154.391 339.398 154.497C339.138 154.604 338.861 154.658 338.58 154.658Z" fill="#CCCCCC"/>
<path d="M462.37 126.262C462.423 125.368 462.454 124.468 462.454 123.56C462.454 111.734 457.743 100.393 449.358 92.0311C440.974 83.6692 429.602 78.9715 417.744 78.9715V126.262H462.37Z" fill="#EF0F2A"/>
<path d="M414.357 130.316V83.025C405.629 83.0246 397.093 85.5716 389.8 90.3519C382.506 95.1321 376.775 101.937 373.313 109.926C369.851 117.916 368.81 126.741 370.317 135.314C371.825 143.887 375.815 151.833 381.796 158.171C387.777 164.509 395.488 168.963 403.977 170.984C412.466 173.004 421.362 172.503 429.568 169.541C437.775 166.579 444.933 161.287 450.16 154.317C455.387 147.347 458.454 139.003 458.982 130.316H414.357Z" fill="#3F3D56"/>
<path d="M476.872 389.108C477.188 389.535 477.469 389.986 477.713 390.457L525.064 395.767L531.951 386.487L547.352 395.022L533.795 417.562L475.783 402.378C474.307 403.794 472.434 404.727 470.413 405.055C468.391 405.383 466.318 405.089 464.468 404.213C462.619 403.337 461.08 401.92 460.057 400.151C459.035 398.381 458.577 396.343 458.744 394.308C458.911 392.273 459.695 390.336 460.993 388.756C462.29 387.176 464.039 386.027 466.007 385.463C467.975 384.899 470.069 384.945 472.01 385.596C473.95 386.247 475.647 387.472 476.872 389.108Z" fill="#FFB8B8"/>
<path d="M235.263 376.916C234.066 377.618 232.729 378.05 231.346 378.181C229.963 378.311 228.568 378.138 227.26 377.673C225.951 377.208 224.761 376.463 223.772 375.49C222.784 374.516 222.022 373.339 221.539 372.04L187.781 372.742L197.133 357.936L227.757 359.539C229.999 358.875 232.407 359.054 234.525 360.043C236.643 361.031 238.324 362.76 239.25 364.902C240.175 367.044 240.28 369.45 239.545 371.665C238.811 373.879 237.287 375.747 235.263 376.916V376.916Z" fill="#FFB8B8"/>
<path d="M220.427 372.678C220.159 373.57 219.604 374.35 218.848 374.897C218.092 375.445 217.176 375.729 216.242 375.706L154.46 374.141L98.5165 357.622C96.9771 357.168 95.5436 356.413 94.2994 355.401C93.0552 354.389 92.0252 353.141 91.2692 351.728C90.5131 350.316 90.0462 348.768 89.8955 347.174C89.7448 345.579 89.9134 343.972 90.3914 342.443C90.8694 340.915 91.6473 339.496 92.6799 338.27C93.7125 337.044 94.9792 336.035 96.4063 335.302C97.8335 334.569 99.3925 334.125 100.993 333.998C102.593 333.871 104.203 334.063 105.728 334.562L156.271 351.088L216.933 356.926C217.995 357.034 218.979 357.534 219.691 358.328C220.402 359.123 220.789 360.154 220.776 361.219L220.601 371.538C220.595 371.924 220.536 372.308 220.427 372.678Z" fill="#3F3D56"/>
<path d="M130.829 637.574L142.413 637.573L147.924 593.013L130.827 593.014L130.829 637.574Z" fill="#FFB8B8"/>
<path d="M127.874 633.802L150.687 633.801H150.688C152.597 633.801 154.488 634.176 156.252 634.905C158.016 635.633 159.618 636.701 160.968 638.048C162.318 639.394 163.389 640.992 164.12 642.752C164.851 644.511 165.227 646.396 165.227 648.3V648.771L127.875 648.773L127.874 633.802Z" fill="#2F2E41"/>
<path d="M96.8135 637.574L108.397 637.573L113.908 593.013L96.8117 593.014L96.8135 637.574Z" fill="#FFB8B8"/>
<path d="M93.8584 633.802L116.671 633.801H116.672C118.582 633.801 120.472 634.176 122.236 634.905C124 635.633 125.603 636.701 126.953 638.048C128.303 639.394 129.374 640.992 130.104 642.752C130.835 644.511 131.211 646.396 131.211 648.3V648.771L93.8591 648.773L93.8584 633.802Z" fill="#2F2E41"/>
<path d="M89.0391 457.489L91.8051 621.165C91.8139 621.683 91.9298 622.194 92.1455 622.665C92.3613 623.137 92.6723 623.559 93.059 623.906C93.4458 624.252 93.9001 624.515 94.3934 624.678C94.8868 624.842 95.4086 624.902 95.9263 624.855L109.482 623.626C110.371 623.545 111.203 623.153 111.83 622.52C112.457 621.886 112.839 621.051 112.908 620.163L120.844 518.068C120.862 517.828 120.972 517.604 121.151 517.442C121.33 517.281 121.563 517.194 121.804 517.198C122.046 517.203 122.276 517.3 122.448 517.468C122.62 517.637 122.721 517.864 122.73 518.105L126.697 622.538C126.734 623.512 127.148 624.434 127.852 625.111C128.556 625.787 129.496 626.165 130.473 626.165H145.011C145.973 626.165 146.9 625.798 147.601 625.141C148.302 624.483 148.725 623.583 148.783 622.625L158.96 456.547L98.4879 441.47L89.0391 457.489Z" fill="#2F2E41"/>
<path d="M132.902 303.8C145.719 303.8 156.109 293.438 156.109 280.656C156.109 267.874 145.719 257.512 132.902 257.512C120.085 257.512 109.694 267.874 109.694 280.656C109.694 293.438 120.085 303.8 132.902 303.8Z" fill="#FFB8B8"/>
<path d="M158.071 463.557C158.048 463.557 158.026 463.556 158.003 463.556L103.738 462.724C102.695 462.708 101.694 462.31 100.926 461.606C100.158 460.902 99.6759 459.941 99.5723 458.906L98.958 452.778C98.9463 452.661 98.8917 452.554 98.8048 452.475C98.718 452.397 98.605 452.354 98.4878 452.354C98.3707 452.354 98.2577 452.397 98.1708 452.475C98.0839 452.554 98.0294 452.661 98.0177 452.778L97.3831 459.107C97.2847 460.098 96.8393 461.023 96.1252 461.719C95.4111 462.414 94.4739 462.837 93.4783 462.912L89.6434 463.207C88.9675 463.259 88.289 463.149 87.6644 462.886C87.0398 462.623 86.4873 462.215 86.0529 461.696C85.6185 461.178 85.3148 460.562 85.1672 459.903C85.0196 459.243 85.0323 458.557 85.2044 457.903L88.5064 445.348C95.3392 419.253 95.8889 391.917 90.1105 365.571L88.4697 358.127C87.2328 352.566 87.7989 346.757 90.0865 341.538C92.374 336.319 96.2647 331.959 101.197 329.088L111.856 322.857L116.692 315.623C117.628 314.227 118.887 313.076 120.364 312.269C121.841 311.461 123.491 311.021 125.175 310.984C131.92 310.837 143.492 312.069 145.666 321.907C151.054 323.743 155.72 327.234 158.994 331.88C162.267 336.526 163.98 342.088 163.886 347.765L162.32 459.376C162.304 460.49 161.85 461.553 161.055 462.335C160.26 463.117 159.188 463.557 158.071 463.557Z" fill="#3F3D56"/>
<path d="M131.086 293.997C130.991 297.269 128.714 299.161 125.917 300.875C123.121 302.589 119.852 303.332 116.65 304.049C116.22 304.276 115.738 304.39 115.251 304.378C114.765 304.366 114.289 304.229 113.871 303.981C113.452 303.732 113.105 303.38 112.863 302.959C112.621 302.538 112.491 302.061 112.488 301.575L109.551 290.434C108.512 286.875 107.755 283.24 107.289 279.563C106.582 272.487 108.264 264.875 113.216 259.759C118.168 254.642 126.757 252.825 132.691 256.767C139.734 247.796 171.926 267.616 163.985 273.854C162.572 274.964 160.413 273.559 158.62 273.423C156.826 273.287 154.817 273.602 153.678 274.99C152.19 276.803 152.838 279.504 152.225 281.766C151.971 282.562 151.562 283.299 151.021 283.937C150.48 284.574 149.818 285.098 149.072 285.479C148.327 285.86 147.514 286.09 146.679 286.156C145.844 286.222 145.005 286.122 144.209 285.863C142.726 285.135 141.331 284.24 140.051 283.198C138.676 282.284 136.938 281.609 135.39 282.185C133.349 282.945 132.624 285.437 132.439 287.601C132.128 289.76 131.676 291.897 131.086 293.997Z" fill="#2F2E41"/>
<path opacity="0.2" d="M136.506 356.026L140.286 402.2L160.128 450.258L130.837 403.142L136.506 356.026Z" fill="black"/>
<path d="M380.616 608.876L173.526 486.35C169.974 484.242 167.404 480.816 166.382 476.822C165.36 472.827 165.968 468.592 168.073 465.044L264.569 302.834C266.117 300.238 268.634 298.361 271.568 297.614C274.502 296.867 277.613 297.311 280.219 298.849L494.311 425.518C496.958 427.088 498.873 429.642 499.635 432.619C500.397 435.596 499.944 438.752 498.375 441.396L401.98 603.438C399.867 606.98 396.431 609.543 392.426 610.562C388.421 611.582 384.174 610.976 380.616 608.876Z" fill="#F2F2F2"/>
<path d="M194.483 480.67L375.569 587.812C379.018 589.852 383.137 590.442 387.022 589.453C390.907 588.464 394.239 585.976 396.285 582.537L470.312 458.098C472.358 454.659 472.95 450.55 471.958 446.676C470.966 442.801 468.472 439.478 465.023 437.438L283.937 330.297C280.489 328.257 276.369 327.666 272.484 328.655C268.599 329.644 265.267 332.132 263.222 335.571L189.195 460.011C187.149 463.45 186.557 467.558 187.549 471.433C188.54 475.307 191.035 478.63 194.483 480.67Z" fill="white"/>
<path d="M498.744 440.352L264.835 301.958L268.885 295.15C271.006 291.596 274.455 289.026 278.473 288.004C282.492 286.982 286.753 287.592 290.321 289.699L497.315 412.169C500.88 414.282 503.459 417.719 504.486 421.727C505.513 425.734 504.905 429.984 502.794 433.544L498.744 440.352Z" fill="#CCCCCC"/>
<path d="M295.294 310.374C297.53 310.374 299.342 308.567 299.342 306.337C299.342 304.108 297.53 302.301 295.294 302.301C293.059 302.301 291.247 304.108 291.247 306.337C291.247 308.567 293.059 310.374 295.294 310.374Z" fill="white"/>
<path d="M308.507 318.191C310.742 318.191 312.554 316.384 312.554 314.155C312.554 311.925 310.742 310.118 308.507 310.118C306.271 310.118 304.459 311.925 304.459 314.155C304.459 316.384 306.271 318.191 308.507 318.191Z" fill="white"/>
<path d="M321.719 326.008C323.954 326.008 325.766 324.201 325.766 321.972C325.766 319.743 323.954 317.936 321.719 317.936C319.484 317.936 317.672 319.743 317.672 321.972C317.672 324.201 319.484 326.008 321.719 326.008Z" fill="white"/>
<path d="M446.699 463.976L446.436 464.418L449.098 465.994L449.362 465.551L446.699 463.976Z" fill="black" fill-opacity="0.01"/>
<path d="M441.058 461.236L435.679 458.054L435.942 457.611L441.321 460.794L441.058 461.236ZM430.301 454.872L424.922 451.69L425.186 451.247L430.564 454.429L430.301 454.872ZM419.544 448.507L414.165 445.325L414.429 444.883L419.807 448.065L419.544 448.507ZM408.787 442.143L403.408 438.961L403.672 438.518L409.05 441.7L408.787 442.143ZM398.03 435.778L392.651 432.596L392.915 432.154L398.293 435.336L398.03 435.778ZM387.273 429.414L381.895 426.232L382.158 425.789L387.536 428.972L387.273 429.414ZM376.516 423.05L371.138 419.867L371.401 419.425L376.779 422.607L376.516 423.05ZM365.759 416.685L360.381 413.503L360.644 413.06L366.022 416.243L365.759 416.685ZM355.002 410.321L349.624 407.139L349.887 406.696L355.265 409.878L355.002 410.321ZM344.245 403.956L338.867 400.774L339.13 400.332L344.508 403.514L344.245 403.956ZM333.488 397.592L328.11 394.41L328.373 393.967L333.752 397.149L333.488 397.592ZM322.731 391.227L317.353 388.045L317.616 387.603L322.995 390.785L322.731 391.227ZM311.974 384.863L306.596 381.681L306.859 381.238L312.238 384.421L311.974 384.863ZM301.217 378.499L295.839 375.316L296.102 374.874L301.481 378.056L301.217 378.499ZM290.461 372.134L285.082 368.952L285.345 368.509L290.724 371.692L290.461 372.134ZM279.704 365.77L274.325 362.588L274.588 362.145L279.967 365.327L279.704 365.77Z" fill="black" fill-opacity="0.01"/>
<path d="M266.548 357.388L266.284 357.83L268.947 359.405L269.21 358.963L266.548 357.388Z" fill="black" fill-opacity="0.01"/>
<path d="M334.804 453.411L334.541 453.854L337.203 455.429L337.466 454.986L334.804 453.411Z" fill="black" fill-opacity="0.01"/>
<path d="M329.242 450.719L323.943 447.584L324.207 447.141L329.505 450.276L329.242 450.719ZM318.645 444.449L313.346 441.314L313.609 440.871L318.908 444.006L318.645 444.449ZM308.048 438.179L302.749 435.044L303.012 434.601L308.311 437.736L308.048 438.179ZM297.45 431.909L292.152 428.774L292.415 428.332L297.714 431.467L297.45 431.909ZM286.853 425.639L281.555 422.504L281.818 422.062L287.117 425.197L286.853 425.639ZM276.256 419.369L270.957 416.234L271.221 415.792L276.519 418.927L276.256 419.369ZM265.659 413.099L260.36 409.964L260.624 409.522L265.922 412.657L265.659 413.099ZM255.062 406.829L249.763 403.694L250.026 403.252L255.325 406.387L255.062 406.829Z" fill="black" fill-opacity="0.01"/>
<path d="M242.066 398.542L241.802 398.984L244.465 400.56L244.728 400.117L242.066 398.542Z" fill="black" fill-opacity="0.01"/>
<path d="M271.305 442.166L271.042 442.608L273.704 444.184L273.968 443.741L271.305 442.166Z" fill="black" fill-opacity="0.01"/>
<path d="M265.591 439.383L260.139 436.158L260.402 435.715L265.854 438.94L265.591 439.383ZM254.688 432.932L249.236 429.707L249.499 429.264L254.951 432.49L254.688 432.932ZM243.785 426.481L238.333 423.256L238.597 422.813L244.048 426.039L243.785 426.481Z" fill="black" fill-opacity="0.01"/>
<path d="M230.483 418.013L230.219 418.455L232.882 420.031L233.145 419.588L230.483 418.013Z" fill="black" fill-opacity="0.01"/>
<path d="M251.539 475.393L251.276 475.836L253.938 477.411L254.201 476.969L251.539 475.393Z" fill="black" fill-opacity="0.01"/>
<path d="M245.824 472.611L240.373 469.385L240.636 468.943L246.087 472.168L245.824 472.611ZM234.921 466.16L229.47 462.934L229.733 462.492L235.184 465.717L234.921 466.16ZM224.018 459.709L218.567 456.484L218.83 456.041L224.282 459.266L224.018 459.709Z" fill="black" fill-opacity="0.01"/>
<path d="M210.716 451.24L210.453 451.683L213.115 453.258L213.379 452.816L210.716 451.24Z" fill="black" fill-opacity="0.01"/>
<path d="M225.261 460.903L378.719 551.698C382.438 553.892 386.877 554.526 391.063 553.461C395.249 552.395 398.84 549.717 401.049 546.013L445.886 470.641L445.578 470.47L343.847 496.366L335.788 464.899C335.641 464.317 335.361 463.777 334.97 463.322C334.578 462.866 334.086 462.507 333.533 462.273C332.686 461.932 331.75 461.88 330.87 462.124L277.558 475.692L271.666 452.686C271.539 452.189 271.315 451.722 271.007 451.312C270.699 450.902 270.313 450.556 269.871 450.295C269.429 450.033 268.94 449.861 268.431 449.788C267.923 449.715 267.405 449.743 266.907 449.87C266.547 449.965 231.856 459.132 225.261 460.903Z" fill="#EF0F2A"/>
<path d="M224.344 460.958L224.217 460.46L266.877 449.599C268.004 449.313 269.199 449.485 270.199 450.077C271.199 450.668 271.922 451.632 272.211 452.755L277.985 475.309L331 461.812C332.127 461.526 333.321 461.698 334.321 462.29C335.321 462.881 336.045 463.845 336.334 464.968L344.273 495.983L446.534 469.948L446.661 470.447L343.901 496.609L335.834 465.095C335.708 464.604 335.487 464.142 335.182 463.737C334.878 463.331 334.496 462.989 334.059 462.731C333.622 462.472 333.138 462.302 332.635 462.23C332.132 462.158 331.62 462.185 331.128 462.31L277.612 475.935L271.711 452.882C271.456 451.891 270.818 451.041 269.935 450.519C269.053 449.997 267.999 449.846 267.005 450.097L224.344 460.958Z" fill="#3F3D56"/>
<path d="M273.836 447.564C275.831 447.564 277.448 445.951 277.448 443.962C277.448 441.973 275.831 440.36 273.836 440.36C271.841 440.36 270.224 441.973 270.224 443.962C270.224 445.951 271.841 447.564 273.836 447.564Z" fill="#3F3D56"/>
<path d="M337.335 458.809C339.329 458.809 340.946 457.197 340.946 455.208C340.946 453.219 339.329 451.606 337.335 451.606C335.34 451.606 333.723 453.219 333.723 455.208C333.723 457.197 335.34 458.809 337.335 458.809Z" fill="#3F3D56"/>
<path d="M447.961 467.483C449.955 467.483 451.572 465.871 451.572 463.882C451.572 461.892 449.955 460.28 447.961 460.28C445.966 460.28 444.349 461.892 444.349 463.882C444.349 465.871 445.966 467.483 447.961 467.483Z" fill="#3F3D56"/>
<path d="M164.768 468.155C163.685 467.287 162.806 466.194 162.192 464.951C161.579 463.708 161.246 462.346 161.217 460.961C161.189 459.576 161.465 458.202 162.027 456.935C162.588 455.668 163.422 454.539 164.468 453.628L151.827 422.403L169.026 425.867L178.393 454.987C179.811 456.842 180.498 459.151 180.323 461.477C180.149 463.802 179.125 465.983 177.445 467.607C175.766 469.23 173.547 470.182 171.211 470.283C168.875 470.384 166.582 469.627 164.768 468.155Z" fill="#FFB8B8"/>
<path d="M164.558 454.626C163.627 454.693 162.699 454.452 161.917 453.942C161.136 453.431 160.545 452.678 160.234 451.8L139.771 393.641L135.397 335.62C135.277 334.023 135.476 332.418 135.983 330.899C136.489 329.38 137.294 327.976 138.35 326.77C139.405 325.563 140.691 324.578 142.132 323.872C143.573 323.166 145.14 322.752 146.742 322.655C148.345 322.558 149.951 322.78 151.467 323.308C152.983 323.835 154.378 324.658 155.572 325.729C156.766 326.799 157.735 328.095 158.422 329.542C159.109 330.989 159.501 332.558 159.575 334.158L162.024 387.147L178.084 445.777C178.361 446.806 178.241 447.901 177.749 448.846C177.256 449.791 176.427 450.518 175.424 450.884L165.688 454.383C165.324 454.515 164.944 454.597 164.558 454.626Z" fill="#3F3D56"/>
<path d="M543.986 403.094C543.605 402.927 543.25 402.706 542.932 402.438L523.901 386.45C523.443 386.066 523.071 385.591 522.807 385.056C522.543 384.521 522.393 383.937 522.367 383.341C522.341 382.745 522.439 382.15 522.655 381.594C522.871 381.038 523.201 380.532 523.623 380.11L540.892 362.816C541.617 362.084 542.582 361.636 543.611 361.554C544.64 361.472 545.664 361.762 546.496 362.371L559.556 371.829C560.371 372.419 560.953 373.275 561.203 374.249C561.453 375.222 561.354 376.252 560.924 377.16L549.626 400.984C549.145 401.997 548.287 402.784 547.235 403.178C546.182 403.572 545.017 403.542 543.986 403.094L543.986 403.094Z" fill="#EF0F2A"/>
<path d="M618.214 629.215L606.848 632.299L589.51 590.045L606.285 585.493L618.214 629.215Z" fill="#FFB8B8"/>
<path d="M597.617 631.325L619.766 625.315L623.521 639.08L587.799 648.773L587.737 648.544C586.757 644.954 587.248 641.123 589.101 637.894C590.954 634.665 594.017 632.302 597.617 631.325Z" fill="#2F2E41"/>
<path d="M521.047 637.865L509.268 637.864L503.664 592.552L521.049 592.553L521.047 637.865Z" fill="#FFB8B8"/>
<path d="M500.617 634.507H523.571V648.772H486.55V648.535C486.55 644.815 488.032 641.247 490.67 638.616C493.308 635.985 496.886 634.507 500.617 634.507Z" fill="#2F2E41"/>
<path d="M538.792 338.696C551.825 338.696 562.39 328.159 562.39 315.161C562.39 302.164 551.825 291.627 538.792 291.627C525.759 291.627 515.193 302.164 515.193 315.161C515.193 328.159 525.759 338.696 538.792 338.696Z" fill="#FFB8B8"/>
<path d="M520.326 605.557H504.229C503.128 605.555 502.07 605.136 501.268 604.385C500.466 603.634 499.98 602.606 499.909 601.511C495.113 525.467 497.919 470.919 508.739 429.846C508.786 429.667 508.845 429.49 508.914 429.318L509.776 427.168C510.095 426.366 510.648 425.679 511.364 425.195C512.08 424.712 512.926 424.455 513.791 424.457H546.893C547.516 424.457 548.133 424.591 548.699 424.851C549.266 425.111 549.77 425.49 550.175 425.963L554.671 431.195C554.759 431.297 554.841 431.401 554.92 431.51C575.194 459.706 593.363 514.83 614.406 588.922C614.717 589.999 614.593 591.154 614.062 592.141C613.531 593.129 612.635 593.87 611.564 594.208L594.264 599.729C593.271 600.041 592.199 599.987 591.242 599.576C590.286 599.166 589.508 598.427 589.052 597.494L544.16 504.638C543.847 503.989 543.331 503.458 542.691 503.123C542.051 502.789 541.32 502.67 540.607 502.782C539.893 502.894 539.235 503.233 538.729 503.748C538.224 504.262 537.898 504.926 537.8 505.64L524.61 601.829C524.465 602.861 523.952 603.806 523.165 604.49C522.378 605.175 521.37 605.554 520.326 605.557Z" fill="#2F2E41"/>
<path d="M552.857 431.578C552.811 431.578 552.766 431.577 552.721 431.576L512.513 430.31C511.479 430.281 510.49 429.882 509.727 429.187C508.963 428.491 508.476 427.545 508.354 426.521C503.257 385.374 517.236 374.351 523.482 371.522C524.004 371.288 524.456 370.922 524.795 370.462C525.134 370.001 525.348 369.461 525.416 368.894L525.956 364.581C526.048 363.819 526.343 363.096 526.81 362.487C536.604 349.834 549.978 345.782 557.078 344.493C557.654 344.39 558.245 344.405 558.815 344.536C559.385 344.668 559.922 344.914 560.394 345.259C560.866 345.604 561.263 346.041 561.56 346.543C561.857 347.046 562.049 347.603 562.124 348.182L562.933 354.375C563.016 354.966 563.252 355.524 563.619 355.996C584.045 382.626 561.289 421.946 556.52 429.557C556.131 430.175 555.59 430.685 554.949 431.038C554.309 431.391 553.589 431.577 552.857 431.578Z" fill="#EF0F2A"/>
<path d="M564.756 300.525C563.003 295.226 561.709 289.787 560.889 284.267C560.631 281.054 561.456 277.597 563.803 275.379C568.194 271.23 575.655 273.206 580.247 277.133C586.884 282.808 590.195 291.53 591.446 300.159C592.697 308.789 592.146 317.564 592.447 326.277C592.748 334.991 593.998 343.951 598.453 351.453C602.907 358.955 611.173 364.714 619.892 364.076C623.412 363.886 626.754 362.474 629.338 360.084C630.606 358.88 631.567 357.391 632.139 355.74C632.712 354.09 632.879 352.327 632.627 350.599C637.084 358.557 634.825 369.343 628.177 375.599C621.53 381.856 611.306 383.624 602.567 380.953C593.828 378.282 586.636 371.584 582.34 363.539C578.044 355.493 576.47 346.199 576.698 337.087C576.873 330.089 578.066 323.035 576.88 316.136C575.694 309.236 571.365 302.231 564.538 300.607L564.756 300.525Z" fill="#2F2E41"/>
<path d="M534.097 309.595C532.933 313.473 528.481 315.864 524.476 315.208C522.482 314.795 520.638 313.851 519.138 312.476C517.639 311.102 516.541 309.348 515.96 307.402C514.86 303.457 515.31 299.243 517.219 295.619C518.272 293.447 519.743 291.503 521.549 289.898C523.355 288.294 525.461 287.06 527.746 286.268C530.044 285.509 532.491 285.311 534.882 285.692C537.272 286.073 539.535 287.021 541.481 288.457C541.689 287.586 542.125 286.786 542.746 286.139C543.366 285.491 544.148 285.021 545.012 284.775C546.75 284.308 548.585 284.335 550.309 284.853C555.277 286.265 559.581 289.388 562.457 293.667C565.297 297.933 567.175 302.762 567.963 307.821C569.319 315.409 568.819 323.7 564.546 330.122C560.273 336.543 551.531 340.335 544.439 337.273C543.997 335.019 545.044 332.749 546.256 330.795C547.468 328.841 548.905 326.938 549.37 324.688C549.836 322.438 548.943 319.686 546.761 318.951C544.899 318.323 542.914 319.34 540.953 319.463C539.839 319.532 538.727 319.309 537.727 318.814C536.727 318.32 535.875 317.572 535.257 316.645C534.638 315.719 534.275 314.646 534.203 313.536C534.132 312.425 534.354 311.315 534.848 310.317L534.097 309.595Z" fill="#2F2E41"/>
<path d="M474.289 406.548C474.679 406.908 475.04 407.298 475.369 407.715L522.875 404.028L527.884 393.62L544.622 399.106L535.569 423.791L475.728 419.785C474.545 421.453 472.882 422.722 470.959 423.424C469.036 424.126 466.944 424.227 464.962 423.714C462.98 423.202 461.201 422.099 459.863 420.554C458.524 419.009 457.689 417.093 457.468 415.063C457.247 413.033 457.652 410.984 458.627 409.188C459.603 407.392 461.103 405.936 462.929 405.011C464.755 404.087 466.82 403.739 468.849 404.013C470.878 404.288 472.776 405.172 474.289 406.548V406.548Z" fill="#FFB8B8"/>
<path d="M544.365 415.548C543.964 415.434 543.582 415.263 543.23 415.041L522.192 401.789C521.686 401.47 521.252 401.051 520.918 400.556C520.583 400.062 520.355 399.504 520.247 398.917C520.14 398.33 520.156 397.727 520.294 397.147C520.432 396.567 520.69 396.021 521.05 395.545L535.795 376.066C536.414 375.242 537.308 374.667 538.316 374.446C539.324 374.226 540.378 374.374 541.286 374.863L555.516 382.458C556.404 382.932 557.099 383.701 557.479 384.631C557.86 385.562 557.902 386.596 557.6 387.554L549.663 412.69C549.325 413.76 548.583 414.656 547.594 415.189C546.605 415.723 545.447 415.851 544.365 415.548Z" fill="#EF0F2A"/>
</g>
<defs>
<clipPath id="clip0_4_90">
<rect width="720" height="650" fill="white"/>
</clipPath>
</defs>
</svg>
