<svg width="667" height="333" viewBox="0 0 667 333" fill="none" xmlns="http://www.w3.org/2000/svg">
<g clip-path="url(#clip0_4_513)">
<path d="M219.656 333C199.53 333 179.434 332.641 159.368 331.923C130.696 330.898 101.048 329.838 73.491 314.616C54.2137 303.969 37.1407 286.887 24.1182 265.215C15.4142 250.526 9.03202 234.59 5.19587 217.967C-1.96002 187.703 -1.71628 156.17 5.90659 126.019C8.57794 115.682 12.2606 105.63 16.9016 96.0086C36.9978 54.5632 73.6516 26.7421 117.465 19.6793C117.827 19.6325 118.193 19.6248 118.556 19.6561C118.753 19.6666 118.95 19.6779 119.15 19.6695L119.408 19.5879C120.069 19.3592 120.747 19.1857 121.437 19.0692C189.009 9.05074 260.443 29.3217 328.01 77.689C380.252 115.092 449.489 135.232 539.676 139.262L540.956 139.329C566.062 140.765 590.347 151.073 611.188 169.141C631.759 186.973 647.204 210.765 655.854 237.945C656.917 241.259 657.892 244.708 658.751 248.197C659.551 251.439 659.495 254.832 658.587 258.046C657.68 261.26 655.953 264.186 653.574 266.538V266.544L653.35 266.774C652.809 267.31 652.24 267.823 651.658 268.301L650.974 268.863C645.211 273.591 640.659 277.326 635.211 280.227C631.577 282.149 627.712 283.602 623.71 284.552C601.733 289.888 579.414 294.835 557.375 299.258C514.573 307.852 470.643 314.943 426.806 320.33C358.081 328.77 288.901 333.001 219.656 333ZM118.044 21.124C117.909 21.1227 117.775 21.1318 117.642 21.1512C74.2378 28.1479 37.9309 55.6959 18.034 96.7311C13.4387 106.257 9.79254 116.209 7.14776 126.445C-0.405655 156.328 -0.646361 187.581 6.44588 217.576C10.2445 234.04 16.5648 249.823 25.1848 264.372C38.0798 285.831 54.9782 302.743 74.0533 313.277C101.363 328.362 130.871 329.418 159.408 330.438C248.662 333.614 338.028 329.74 426.668 318.853C470.477 313.469 514.378 306.383 557.151 297.794C579.176 293.375 601.479 288.431 623.442 283.098C627.347 282.172 631.119 280.755 634.665 278.88C640.003 276.037 644.512 272.338 650.22 267.654L650.904 267.094C651.404 266.682 651.895 266.243 652.365 265.786L652.5 265.645C657.191 260.936 659.015 254.724 657.504 248.601V248.6C656.655 245.149 655.69 241.736 654.637 238.457C636.968 182.933 591.258 143.694 540.894 140.813L539.621 140.746C498.424 138.905 462.375 133.805 429.416 125.154C390.071 114.827 355.722 99.281 327.324 78.9491C260.014 30.7671 188.879 10.5716 121.602 20.5426C120.974 20.6505 120.355 20.8102 119.754 21.0199L119.289 21.1494C119.025 21.1611 118.761 21.158 118.497 21.1399C118.342 21.132 118.191 21.124 118.044 21.124H118.044Z" fill="#F0F0F0"/>
<path d="M208.343 108.495C206.48 106.715 204.575 96.7871 202.196 95.7793C203.974 99.693 202.683 100.729 202.673 105.024C202.696 107.463 202.41 109.895 201.822 112.263H161.527V80.9438C161.527 78.1297 162.083 75.3431 163.165 72.7432C164.246 70.1433 165.831 67.7809 167.829 65.791C169.827 63.8011 172.199 62.2227 174.809 61.1458C177.42 60.0689 180.218 59.5147 183.044 59.5148C184.122 59.5358 185.194 59.692 186.233 59.9798C189.696 60.9111 192.853 62.7331 195.386 65.263C197.92 67.7929 199.74 70.9417 200.666 74.3937C203.738 85.576 208.623 104.19 208.343 108.495Z" fill="#2F2E41"/>
<path d="M163.891 147.024L163.911 122.612L149.503 123.895L154.588 139.291L152.208 177.99C151.054 178.248 150 178.835 149.175 179.679C148.349 180.523 147.789 181.589 147.561 182.745C147.333 183.901 147.448 185.098 147.891 186.19C148.335 187.282 149.088 188.222 150.059 188.896C151.029 189.569 152.176 189.947 153.358 189.982C154.541 190.018 155.708 189.71 156.718 189.097C157.728 188.483 158.536 187.59 159.045 186.526C159.554 185.463 159.742 184.275 159.585 183.107L163.891 147.024Z" fill="#FFB6B6"/>
<path d="M192.247 321.47L198.067 321.469L200.837 299.108H192.245L192.247 321.47Z" fill="#FFB6B6"/>
<path d="M190.276 318.61L199.477 318.063V321.989L208.226 328.006C208.658 328.304 208.984 328.73 209.155 329.225C209.326 329.719 209.334 330.255 209.178 330.755C209.022 331.254 208.709 331.69 208.286 332C207.863 332.31 207.352 332.477 206.827 332.477H195.871L193.983 328.593L193.246 332.477H189.115L190.276 318.61Z" fill="#2F2E41"/>
<path d="M158.589 321.47L164.41 321.469L167.179 299.108H158.588L158.589 321.47Z" fill="#FFB6B6"/>
<path d="M156.617 318.61L165.819 318.063V321.989L174.568 328.006C175 328.304 175.325 328.73 175.497 329.225C175.668 329.719 175.676 330.255 175.52 330.755C175.363 331.254 175.051 331.69 174.628 332C174.205 332.31 173.694 332.477 173.168 332.477H162.213L160.325 328.593L159.588 332.477H155.457L156.617 318.61Z" fill="#2F2E41"/>
<path d="M187.063 96.2502L175.004 96.4857L166.492 105.434L159.668 106.431C156.581 106.882 153.743 108.374 151.628 110.659C149.513 112.944 148.25 115.882 148.049 118.983L149.232 125.45H156.325L160.429 149.446C158.833 153.495 158.724 156.691 162 157.947L172.167 177.021L202.196 163.599C203.719 160.991 204.207 158.372 202.65 155.825L204.797 119.092H212.015C212.015 112.222 209.682 106.43 202.826 105.665C200.103 105.372 197.368 105.216 194.629 105.199L187.063 96.2502Z" fill="#E6E6E6"/>
<path d="M202.196 163.599C202.196 163.599 172.876 168.779 162 157.947C162 157.947 160.895 159.814 159.232 162.91C158.753 163.801 157.829 164.404 157.271 165.482C156.764 166.463 155.459 167.668 154.906 168.78C154.462 169.674 155.175 170.843 154.712 171.809C149.142 183.445 142.635 199.857 144.03 210.695C144.929 217.684 146.788 233.947 148.745 251.415C148.898 252.779 147.659 254.533 147.813 255.908C147.958 257.205 149.495 258.125 149.64 259.425C149.736 260.288 148.663 261.168 148.759 262.031C148.864 262.977 150.139 263.904 150.243 264.846C152.924 288.965 155.379 311.482 155.379 311.482H169.093L171.681 260.055L169.566 241.308L174.531 203.395L181.388 239.424L182.271 259.702L189.517 312.424H202.196V261.385L203.142 258.734L202.196 255.333L203.142 251.669L202.196 247.679V163.599Z" fill="#2F2E41"/>
<path d="M190.764 89.2858C188.896 91.757 186.239 93.521 183.23 94.2873C180.221 95.0535 177.039 94.7763 174.21 93.5013C171.38 92.2263 169.07 90.0295 167.662 87.2727C166.253 84.516 165.829 81.3636 166.459 78.3348C167.09 75.3059 168.737 72.5813 171.131 70.6095C173.524 68.6377 176.52 67.5364 179.625 67.4869C182.731 67.4374 185.76 68.4427 188.216 70.3372C190.671 72.2317 192.405 74.9025 193.132 77.9097C193.172 78.0728 193.205 78.2351 193.237 78.4035C193.621 80.2884 193.6 82.233 193.173 84.1089C192.747 85.9849 191.926 87.7493 190.764 89.2858Z" fill="#FFB6B6"/>
<path d="M187.914 81.5183C187.624 80.069 186.891 78.7446 185.815 77.7271C185.921 79.116 185.727 80.5115 185.247 81.8198C181.652 82.1368 178.041 81.4244 174.839 79.7664C172.427 78.1369 169.358 78.2781 165.783 79.7664C165.782 78.0346 166.125 76.3197 166.79 74.7196C167.456 73.1196 168.431 71.6658 169.66 70.4412C170.89 69.2166 172.35 68.2453 173.956 67.5827C175.563 66.92 177.285 66.5791 179.024 66.5793H181.388C184.9 66.5799 188.267 67.9695 190.75 70.4424C193.233 72.9153 194.629 76.2691 194.629 79.7664C192.447 80.5459 190.2 81.1322 187.914 81.5183Z" fill="#2F2E41"/>
<path d="M84.4699 249.593C105.479 249.593 122.51 232.631 122.51 211.708C122.51 190.785 105.479 173.824 84.4699 173.824C63.4611 173.824 46.4302 190.785 46.4302 211.708C46.4302 232.631 63.4611 249.593 84.4699 249.593Z" fill="#F0F0F0"/>
<path d="M326.88 75.7692C347.889 75.7692 364.92 58.8077 364.92 37.8846C364.92 16.9615 347.889 0 326.88 0C305.871 0 288.84 16.9615 288.84 37.8846C288.84 58.8077 305.871 75.7692 326.88 75.7692Z" fill="#F0F0F0"/>
<path d="M628.96 255.535C649.969 255.535 667 238.574 667 217.651C667 196.728 649.969 179.766 628.96 179.766C607.951 179.766 590.92 196.728 590.92 217.651C590.92 238.574 607.951 255.535 628.96 255.535Z" fill="#F0F0F0"/>
<path d="M395.501 42.0161V127.922C395.501 129.707 394.794 131.419 393.534 132.687C392.274 133.956 390.562 134.678 388.771 134.696C388.746 134.699 388.721 134.7 388.696 134.699H378.657C370.624 134.699 362.92 131.521 357.24 125.865C351.56 120.208 348.369 112.535 348.369 104.535V42.0161C348.369 40.2187 349.086 38.4949 350.362 37.2239C351.638 35.9529 353.369 35.2389 355.174 35.2389H359.242C357.357 40.7141 382.935 43.0192 384.339 35.2389H388.696C390.501 35.2389 392.232 35.953 393.508 37.2239C394.784 38.4949 395.501 40.2187 395.501 42.0161Z" fill="#EF0F2A"/>
<path d="M365.708 28.8152C365.708 28.5797 365.802 28.354 365.97 28.1875C366.137 28.0209 366.363 27.9273 366.6 27.927H372.664C372.9 27.9277 373.126 28.0216 373.293 28.188C373.46 28.3545 373.553 28.5801 373.553 28.8152C373.553 29.0503 373.46 29.2758 373.293 29.4423C373.126 29.6088 372.9 29.7027 372.664 29.7033H366.6C366.363 29.7031 366.137 29.6094 365.97 29.4429C365.802 29.2764 365.708 29.0506 365.708 28.8152Z" fill="#3F3D56"/>
<path d="M390.779 145.596H352.429C349.454 145.592 346.601 144.414 344.498 142.319C342.394 140.223 341.21 137.382 341.207 134.419V74.3674C340.996 74.2168 340.825 74.0183 340.706 73.7885C340.588 73.5587 340.527 73.3042 340.527 73.046V67.0065C340.527 66.7483 340.588 66.4938 340.706 66.2641C340.825 66.0343 340.996 65.836 341.207 65.6855V64.0645C340.996 63.914 340.825 63.7156 340.706 63.4859C340.588 63.2561 340.527 63.0016 340.527 62.7435V56.7036C340.527 56.4455 340.588 56.191 340.706 55.9612C340.825 55.7315 340.996 55.5331 341.207 55.3826V52.453C340.947 52.3139 340.729 52.107 340.578 51.8546C340.427 51.6021 340.348 51.3135 340.349 51.0195V44.98C340.348 44.686 340.427 44.3973 340.578 44.1448C340.729 43.8923 340.947 43.6853 341.207 43.5462V35.5186C341.21 32.5554 342.394 29.7145 344.498 27.6192C346.602 25.524 349.454 24.3454 352.429 24.342H390.779C393.755 24.3454 396.607 25.524 398.711 27.6193C400.815 29.7146 401.998 32.5555 402.002 35.5187V53.017C402.204 53.1429 402.371 53.3179 402.486 53.5256C402.602 53.7332 402.662 53.9667 402.662 54.2041V65.7203C402.662 65.9578 402.602 66.1913 402.486 66.399C402.371 66.6067 402.204 66.7818 402.002 66.9078V134.419C401.998 137.382 400.815 140.223 398.711 142.319C396.607 144.414 393.755 145.592 390.779 145.596ZM352.429 25.8277C349.85 25.8306 347.376 26.8525 345.552 28.6693C343.728 30.4861 342.701 32.9493 342.698 35.5187V44.8099L341.981 44.8375C341.944 44.8388 341.908 44.8543 341.882 44.8809C341.856 44.9074 341.841 44.9429 341.84 44.98V51.0195C341.841 51.0566 341.856 51.0921 341.882 51.1186C341.908 51.1451 341.944 51.1606 341.981 51.1621L342.698 51.1893V56.4257L342.131 56.565C342.1 56.5726 342.072 56.5903 342.051 56.6153C342.031 56.6404 342.02 56.6714 342.019 56.7036V62.7435C342.02 62.7757 342.031 62.8067 342.051 62.8318C342.072 62.8568 342.1 62.8745 342.131 62.882L342.698 63.0213V66.7286L342.131 66.8679C342.1 66.8754 342.072 66.8931 342.051 66.9182C342.031 66.9432 342.02 66.9743 342.019 67.0064V73.046C342.019 73.0782 342.031 73.1093 342.051 73.1344C342.071 73.1596 342.1 73.1773 342.131 73.1849L342.698 73.3242V134.419C342.701 136.988 343.728 139.452 345.552 141.269C347.376 143.085 349.85 144.107 352.429 144.11H390.779C393.359 144.107 395.833 143.085 397.657 141.268C399.481 139.452 400.507 136.988 400.51 134.419V65.6357H401.171V54.289H400.51V35.5186C400.507 32.9493 399.481 30.4861 397.657 28.6693C395.833 26.8526 393.359 25.8306 390.779 25.8277L352.429 25.8277Z" fill="#3F3D56"/>
<path d="M376.053 29.7033C376.545 29.7033 376.945 29.3057 376.945 28.8152C376.945 28.3246 376.545 27.927 376.053 27.927C375.56 27.927 375.161 28.3246 375.161 28.8152C375.161 29.3057 375.56 29.7033 376.053 29.7033Z" fill="#3F3D56"/>
<path d="M182.054 200.865H82.2649C80.8478 200.861 79.4897 200.299 78.4876 199.301C77.4855 198.303 76.9208 196.951 76.917 195.54V147.115C76.9206 145.703 77.4851 144.351 78.4871 143.353C79.4891 142.355 80.847 141.793 82.2641 141.789H182.053C183.47 141.792 184.828 142.355 185.83 143.352C186.832 144.35 187.397 145.703 187.401 147.114V195.539C187.397 196.95 186.833 198.303 185.831 199.301C184.829 200.299 183.471 200.861 182.054 200.865Z" fill="white"/>
<path d="M182.054 200.865H82.2649C80.8478 200.861 79.4897 200.299 78.4876 199.301C77.4855 198.303 76.9208 196.951 76.917 195.54V147.115C76.9206 145.703 77.4851 144.351 78.4871 143.353C79.4891 142.355 80.847 141.793 82.2641 141.789H182.053C183.47 141.792 184.828 142.355 185.83 143.352C186.832 144.35 187.397 145.703 187.401 147.114V195.539C187.397 196.95 186.833 198.303 185.831 199.301C184.829 200.299 183.471 200.861 182.054 200.865ZM82.2649 143.274C81.243 143.277 80.2638 143.683 79.5412 144.403C78.8187 145.123 78.4116 146.098 78.4087 147.116V195.539C78.4117 196.557 78.819 197.532 79.5417 198.251C80.2644 198.971 81.2437 199.376 82.2656 199.379H182.052C183.074 199.376 184.054 198.971 184.776 198.251C185.499 197.531 185.906 196.556 185.909 195.538V147.115C185.906 146.097 185.499 145.122 184.776 144.402C184.053 143.683 183.074 143.277 182.052 143.274L82.2649 143.274Z" fill="#3F3D56"/>
<path d="M137.508 193.708C117.827 193.708 97.3057 193.521 89.6489 193.4C88.6415 193.379 87.6822 192.967 86.9757 192.251C86.2692 191.536 85.8716 190.574 85.8677 189.57V149.486C85.8681 149.126 86.0113 148.782 86.2662 148.527C86.521 148.273 86.8666 148.129 87.2274 148.128H177.087C177.448 148.128 177.794 148.271 178.05 148.525C178.305 148.779 178.449 149.123 178.45 149.482V176.679C178.434 181.118 176.67 185.374 173.539 188.534C170.408 191.694 166.157 193.505 161.7 193.58C154.564 193.672 146.114 193.708 137.508 193.708Z" fill="#EF0F2A"/>
<path d="M171.754 174.18H90.5581C89.8782 174.178 89.2154 173.968 88.6597 173.578C88.104 173.188 87.6824 172.637 87.4522 171.999L78.262 146.322C78.0849 145.827 78.0297 145.297 78.1011 144.776C78.1724 144.255 78.3682 143.759 78.6721 143.329C78.9759 142.899 79.3789 142.548 79.8472 142.305C80.3154 142.063 80.8353 141.936 81.3632 141.935L182.856 141.794C183.339 141.793 183.816 141.898 184.253 142.101C184.69 142.304 185.078 142.6 185.388 142.968C185.698 143.336 185.923 143.768 186.047 144.232C186.172 144.696 186.192 145.182 186.108 145.655L186.186 145.688L185.895 146.365L185.892 146.372L174.782 172.19C174.529 172.781 174.107 173.284 173.569 173.638C173.03 173.992 172.399 174.181 171.754 174.18ZM182.861 143.279L81.3661 143.42C81.0769 143.421 80.7921 143.49 80.5356 143.623C80.279 143.756 80.0583 143.948 79.8918 144.184C79.7253 144.419 79.618 144.691 79.5789 144.976C79.5398 145.262 79.5701 145.552 79.6671 145.824L88.8569 171.5C88.9832 171.849 89.2143 172.151 89.5189 172.364C89.8234 172.578 90.1866 172.693 90.5591 172.694H171.754C172.107 172.695 172.452 172.592 172.747 172.398C173.042 172.204 173.272 171.928 173.411 171.605L184.521 145.787L185.067 146.02L184.521 145.787C184.639 145.513 184.687 145.215 184.66 144.918C184.633 144.622 184.533 144.336 184.369 144.088C184.204 143.839 183.98 143.635 183.717 143.494C183.454 143.353 183.16 143.279 182.861 143.279Z" fill="#3F3D56"/>
<path d="M132.008 179.769C135.519 179.769 138.366 176.934 138.366 173.437C138.366 169.94 135.519 167.105 132.008 167.105C128.496 167.105 125.65 169.94 125.65 173.437C125.65 176.934 128.496 179.769 132.008 179.769Z" fill="white"/>
<path d="M372.18 124.8C375.691 124.8 378.538 121.965 378.538 118.468C378.538 114.971 375.691 112.136 372.18 112.136C368.669 112.136 365.822 114.971 365.822 118.468C365.822 121.965 368.669 124.8 372.18 124.8Z" fill="white"/>
<path d="M612.648 210.312L595.664 193.613C594.837 192.793 593.856 192.145 592.777 191.704C591.698 191.262 590.543 191.038 589.376 191.042H589.317C588.142 191.046 586.979 191.281 585.896 191.735C584.813 192.189 583.831 192.853 583.007 193.687C579.209 197.514 577.049 202.659 576.981 208.039C576.913 213.42 578.942 218.617 582.641 222.539C582.82 222.732 583.007 222.918 583.193 223.103C584.226 224.126 585.366 225.035 586.594 225.815C589.952 227.975 593.867 229.118 597.865 229.105H597.991C600.735 229.096 603.45 228.545 605.978 227.484C608.507 226.423 610.799 224.874 612.722 222.925C614.389 221.241 615.317 218.967 615.303 216.603C615.289 214.238 614.334 211.976 612.648 210.312ZM611.663 221.878C608.51 225.041 604.358 227.026 599.907 227.497C595.456 227.967 590.979 226.896 587.228 224.463C586.156 223.756 585.154 222.947 584.237 222.048C580.578 218.449 578.504 213.549 578.472 208.427C578.44 203.304 580.452 198.379 584.066 194.734C584.753 194.037 585.572 193.483 586.476 193.104C587.38 192.726 588.351 192.53 589.332 192.528H589.376C590.348 192.525 591.31 192.712 592.208 193.079C593.107 193.446 593.924 193.986 594.612 194.668L611.596 211.374C613.002 212.759 613.799 214.643 613.811 216.612C613.824 218.581 613.051 220.475 611.663 221.878Z" fill="#3F3D56"/>
<path d="M556.923 155.505L539.94 138.799C538.268 137.147 536.007 136.223 533.652 136.229H533.6C532.423 136.233 531.259 136.47 530.175 136.925C529.09 137.38 528.107 138.045 527.282 138.88C524.143 142.056 522.107 146.149 521.474 150.561C520.84 154.972 521.642 159.47 523.762 163.394L523.769 163.401C524.644 165.007 525.73 166.488 526.999 167.807C527.141 167.97 527.305 168.133 527.469 168.297C531.369 172.152 536.645 174.311 542.14 174.299H542.274C545.018 174.287 547.733 173.735 550.262 172.673C552.79 171.611 555.082 170.06 557.005 168.111C557.831 167.278 558.484 166.291 558.927 165.207C559.37 164.122 559.594 162.962 559.586 161.791C559.579 160.621 559.339 159.463 558.883 158.384C558.426 157.306 557.76 156.327 556.923 155.505V155.505ZM555.939 167.071C554.154 168.88 552.026 170.319 549.68 171.304C547.333 172.29 544.814 172.803 542.267 172.813H542.14C538.316 172.812 534.577 171.684 531.394 169.572C528.211 167.46 525.727 164.458 524.253 160.943C522.779 157.428 522.381 153.558 523.11 149.818C523.839 146.079 525.661 142.638 528.349 139.928C529.739 138.528 531.631 137.734 533.608 137.722C535.586 137.709 537.487 138.479 538.896 139.861L555.879 156.56C557.284 157.947 558.08 159.833 558.091 161.803C558.102 163.774 557.328 165.668 555.939 167.071L555.939 167.071Z" fill="#3F3D56"/>
<path d="M613.733 215.562L595.009 197.144C593.782 195.939 592.124 195.268 590.4 195.279C588.676 195.29 587.027 195.981 585.815 197.201C584.298 198.727 583.097 200.536 582.283 202.525C581.468 204.514 581.055 206.643 581.068 208.79C581.08 210.938 581.517 213.062 582.354 215.041C583.191 217.02 584.412 218.816 585.946 220.325C587.48 221.834 589.298 223.027 591.296 223.836C593.293 224.645 595.431 225.054 597.588 225.04C599.744 225.025 601.876 224.588 603.863 223.752C605.849 222.916 607.651 221.698 609.164 220.169L613.733 215.562Z" fill="#EF0F2A"/>
<path d="M558.013 160.752L539.289 142.335C538.061 141.13 536.403 140.459 534.679 140.47C532.956 140.48 531.307 141.171 530.094 142.392C528.577 143.918 527.377 145.727 526.562 147.716C525.748 149.704 525.335 151.833 525.347 153.981C525.359 156.128 525.796 158.252 526.633 160.232C527.47 162.211 528.691 164.006 530.225 165.516C531.759 167.025 533.577 168.218 535.575 169.027C537.572 169.836 539.711 170.245 541.867 170.23C544.023 170.216 546.156 169.778 548.142 168.942C550.129 168.107 551.93 166.889 553.444 165.359L558.013 160.752Z" fill="#EF0F2A"/>
<path d="M593.158 227.033L592.711 228.206C590.607 227.412 588.569 226.614 586.595 225.815C551.628 211.604 534.935 194.972 523.769 163.402L523.762 163.394C523.232 161.908 522.718 160.388 522.218 158.833L523.396 158.454C523.79 159.95 524.366 161.392 525.112 162.748C525.723 164.479 526.352 166.165 526.999 167.807C537.493 194.452 552.97 209.68 582.641 222.539C584.133 223.185 585.662 223.826 587.229 224.463C589.047 225.643 591.052 226.512 593.158 227.033Z" fill="#3F3D56"/>
<path d="M539.629 172.947L538.58 174.004L577.319 212.11L578.368 211.053L539.629 172.947Z" fill="#3F3D56"/>
<path d="M211.654 141.372L211.674 116.961L197.265 118.243L202.35 133.64L183.892 161.506C182.738 161.764 181.684 162.351 180.859 163.195C180.034 164.04 179.473 165.105 179.245 166.261C179.017 167.417 179.132 168.614 179.575 169.706C180.019 170.798 180.772 171.738 181.743 172.412C182.713 173.085 183.86 173.463 185.042 173.498C186.225 173.534 187.392 173.226 188.402 172.613C189.412 171.999 190.22 171.106 190.729 170.043C191.238 168.979 191.426 167.791 191.269 166.623L211.654 141.372Z" fill="#FFB6B6"/>
</g>
<defs>
<clipPath id="clip0_4_513">
<rect width="667" height="333" fill="white"/>
</clipPath>
</defs>
</svg>
