<svg width="23" height="26" viewBox="0 0 23 26" fill="none" xmlns="http://www.w3.org/2000/svg">
<path d="M11.7262 2.61719C6.90294 2.61719 2.99023 7.14762 2.99023 12.7378C2.99023 18.328 6.90126 22.8584 11.7262 22.8584C16.5511 22.8584 20.4622 18.3275 20.4622 12.7378C20.4622 7.14811 16.5499 2.61719 11.7262 2.61719ZM16.9686 12.5072C16.8489 14.0948 16.2634 14.9254 15.7926 15.3419C15.3218 15.7584 14.7565 15.9414 14.2689 15.8402C14.0429 15.7933 13.8271 15.6953 13.6338 15.5518C13.4405 15.4083 13.2736 15.222 13.1424 15.0037C12.6483 15.5606 11.9838 15.868 11.2944 15.8586C10.9901 15.8614 10.6886 15.7898 10.4097 15.6488C10.1307 15.5077 9.88055 15.3002 9.67535 15.0398C9.19739 14.4354 8.96135 13.5625 9.03191 12.6444C9.15791 10.9414 10.3301 9.85197 11.4204 9.65296C12.5628 9.44422 13.6141 9.97118 14.0622 10.5998L14.2239 10.8266L13.9576 13.2779C13.9077 13.9756 14.0954 14.4204 14.4738 14.4992C14.5742 14.5196 14.814 14.4929 15.0774 14.2593C15.3596 14.0087 15.7132 13.4808 15.7956 12.3875C15.8943 11.0961 15.6129 9.99404 14.9871 9.20094C14.3365 8.37864 13.3453 7.94365 12.1214 7.94365C9.85342 7.94365 7.84541 10.1055 7.64507 12.7607C7.54931 14.0355 7.88321 15.2266 8.58587 16.1146C9.27299 16.9836 10.2369 17.4643 11.3016 17.4643C12.0996 17.4643 12.5872 17.3646 13.3797 17.0371C13.5267 16.9765 13.6884 16.9859 13.8293 17.0634C13.9702 17.1409 14.0788 17.28 14.1311 17.4502C14.1835 17.6204 14.1753 17.8078 14.1084 17.971C14.0416 18.1342 13.9215 18.26 13.7745 18.3207C12.8581 18.6987 12.234 18.8267 11.3016 18.8267C9.90382 18.8267 8.63165 18.1913 7.71899 17.0376C6.7929 15.8645 6.34854 14.3046 6.4737 12.6444C6.59592 11.0226 7.2486 9.49969 8.31203 8.35674C9.37547 7.21379 10.73 6.58126 12.1214 6.58126C13.6838 6.58126 14.9745 7.16903 15.8539 8.28084C16.6977 9.34691 17.0934 10.8475 16.9686 12.5072Z" fill="#E30808"/>
<path d="M11.605 10.9988C10.9821 11.1122 10.2795 11.7695 10.2047 12.7631C10.1627 13.3012 10.2887 13.7956 10.5437 14.1192C10.6387 14.2404 10.7549 14.3367 10.8846 14.4018C11.0144 14.4668 11.1546 14.499 11.2959 14.4962C12.1489 14.4962 12.7545 13.7693 12.8394 12.6444C12.842 12.6104 12.8467 12.5768 12.8537 12.5436L12.9881 11.3053C12.5717 11.0203 12.0828 10.9119 11.605 10.9988Z" fill="#E30808"/>
</svg>
