<svg width="532" height="340" viewBox="0 0 532 340" fill="none" xmlns="http://www.w3.org/2000/svg">
<g clip-path="url(#clip0_22_299)">
<path d="M411.307 134.271C389.701 57.6188 315.048 2.28686 227.421 0.0675447C181.095 -1.10574 132.348 12.7564 96.856 61.2653C33.4106 147.98 100.755 207.903 147.706 236.377C170.388 250.161 190.827 266.735 208.429 285.619C240.143 319.574 301.153 361.767 373.813 295.657C426.477 247.74 425.698 185.328 411.307 134.271Z" fill="#F2F2F2"/>
<path d="M266 340C412.908 340 532 333.782 532 326.112C532 318.442 412.908 312.225 266 312.225C119.092 312.225 0 318.442 0 326.112C0 333.782 119.092 340 266 340Z" fill="#3F3D56"/>
<path opacity="0.1" d="M95.7218 330.018C126.804 330.018 152 327.298 152 323.942C152 320.587 126.804 317.867 95.7218 317.867C64.6401 317.867 39.4434 320.587 39.4434 323.942C39.4434 327.298 64.6401 330.018 95.7218 330.018Z" fill="black"/>
<path opacity="0.1" d="M431.949 332.622C463.031 332.622 488.228 329.902 488.228 326.546C488.228 323.191 463.031 320.47 431.949 320.47C400.868 320.47 375.671 323.191 375.671 326.546C375.671 329.902 400.868 332.622 431.949 332.622Z" fill="black"/>
<path d="M340.601 61.5136C313.718 52.9298 287.184 52.5827 266 66.4567C244.816 52.5827 218.283 52.9298 191.4 61.5136C148.399 75.2433 120.786 104.846 141.537 157.75C160.865 207.025 252.632 247.224 265.131 252.507C265.343 252.896 265.456 253.097 265.456 253.097C265.456 253.097 265.645 253.02 266 252.872C266.356 253.02 266.545 253.097 266.545 253.097C266.545 253.097 266.658 252.896 266.87 252.507C279.368 247.224 371.136 207.025 390.463 157.75C411.214 104.846 383.601 75.2433 340.601 61.5136Z" fill="#FD050C"/>
<path d="M296.304 154.253L271.479 196.848L270.307 168.99L281.392 142.535L270.059 163.086L268.476 125.441L283.316 90.0221L268.143 117.537L266 66.5866L262.447 151.036L229.924 95.2299L262.259 155.523L260.423 199.157L234.253 154.253L260.271 202.768L256.38 295.299H275.62L271.623 200.273L296.304 154.253Z" fill="#3F3D56"/>
<path opacity="0.1" d="M358.355 308.421C358.355 335.412 316.655 327.064 265.599 327.064C214.542 327.064 173.462 335.412 173.462 308.421C173.462 281.429 215.156 275.559 266.212 275.559C317.269 275.559 358.355 281.429 358.355 308.421Z" fill="black"/>
<path d="M358.355 301.775C358.355 328.767 316.655 320.418 265.599 320.418C214.542 320.418 173.462 328.767 173.462 301.775C173.462 274.784 215.156 268.913 266.212 268.913C317.269 268.913 358.355 274.784 358.355 301.775Z" fill="#3F3D56"/>
<path d="M148.035 221.894C148.035 221.894 141.173 236.21 148.035 236.597C154.897 236.984 155.325 221.894 155.325 221.894H148.035Z" fill="#FFB9B9"/>
<path d="M96.5732 216.477L108.581 267.938L115.014 293.475H130.881L113.727 214.929L96.5732 216.477Z" fill="#2F2E41"/>
<path opacity="0.1" d="M96.5732 216.477L108.581 267.938L115.014 293.475H130.881L113.727 214.929L96.5732 216.477Z" fill="black"/>
<path d="M115.014 294.249V300.44L124.019 301.988L124.877 295.797L115.014 294.249Z" fill="#FFB9B9"/>
<path d="M125.735 300.053L113.727 299.279C113.727 299.279 110.296 312.821 110.296 313.982C110.296 315.143 102.148 326.75 107.723 327.524C113.298 328.298 121.446 329.072 122.304 326.75C123.161 324.429 123.161 317.851 124.877 315.143C126.592 312.434 128.308 309.339 127.879 307.791L125.735 300.053Z" fill="#2F2E41"/>
<path d="M117.158 218.025C117.158 218.025 104.293 241.24 107.723 259.813C111.154 278.385 111.154 295.797 112.012 296.57C112.869 297.344 129.166 298.505 129.166 298.505C129.166 298.505 129.595 263.295 128.308 259.426C127.021 255.556 135.598 234.276 139.029 228.859C142.46 223.442 117.158 218.025 117.158 218.025Z" fill="#2F2E41"/>
<path d="M101.719 134.449C101.719 134.449 83.2786 130.967 85.8517 139.866C88.4248 148.765 98.7171 151.087 98.7171 151.087L101.719 134.449Z" fill="#FF6584"/>
<path d="M106.008 179.719C106.008 179.719 97.0017 182.428 97.0017 196.357C97.0017 210.286 92.7132 220.733 97.0017 221.12C101.29 221.507 126.163 221.894 126.163 221.894L106.008 179.719Z" fill="#FF6584"/>
<path d="M108.58 140.64L119.731 132.901L135.169 137.931L145.461 135.997L151.894 144.509L138.171 153.795L119.731 158.825L107.723 151.087L108.58 140.64Z" fill="#FF6584"/>
<path d="M123.161 125.163C123.161 125.163 123.59 131.74 121.446 132.901C119.302 134.062 141.173 136.77 141.173 136.77L142.888 126.323L123.161 125.163Z" fill="#FFB9B9"/>
<path opacity="0.1" d="M123.161 125.163C123.161 125.163 123.59 131.74 121.446 132.901C119.302 134.062 141.173 136.77 141.173 136.77L142.888 126.323L123.161 125.163Z" fill="black"/>
<path d="M134.74 132.901C143.03 132.901 149.75 126.838 149.75 119.359C149.75 111.88 143.03 105.817 134.74 105.817C126.451 105.817 119.73 111.88 119.73 119.359C119.73 126.838 126.451 132.901 134.74 132.901Z" fill="#FFB9B9"/>
<path d="M148.893 144.509L154.682 144.702C154.682 144.702 159.614 144.509 160.471 164.629C161.329 184.749 160.471 212.995 160.471 212.995C160.471 212.995 163.045 227.311 156.183 226.537C149.321 225.763 142.46 226.15 145.462 223.829C148.464 221.507 149.75 208.352 149.75 208.352L142.889 161.147L148.893 144.509Z" fill="#FF6584"/>
<path d="M119.73 133.634C119.73 133.634 103.434 132.514 100.861 133.675C98.2879 134.836 96.1437 146.057 96.1437 146.057L95.7148 154.956C95.7148 154.956 98.5456 173.532 101.848 174.111C105.149 174.689 104.721 177.785 103.005 178.945C101.29 180.106 116.728 239.306 121.446 239.692C126.163 240.079 131.309 234.662 131.309 234.662C131.309 234.662 140.744 232.728 142.888 231.18C145.032 229.632 147.605 185.136 143.746 184.362C143.746 184.362 139.457 183.588 139.886 182.428C140.315 181.267 145.736 179.051 145.736 179.051L143.746 161.147C143.746 161.147 146.748 146.057 154.467 144.509C154.467 144.509 151.036 140.64 149.75 140.64C148.463 140.64 140.315 142.187 137.742 144.509C135.169 146.831 132.596 154.182 126.592 151.087C120.588 147.991 115.871 142.961 117.157 140.64C118.444 138.318 119.73 133.634 119.73 133.634Z" fill="#3F3D56"/>
<path d="M91.3898 103.729C93.0417 104.97 94.7113 106.229 95.8753 107.716C97.395 109.657 97.9744 111.892 98.1779 114.1C98.3492 115.958 98.2265 117.933 96.8015 119.507C95.7727 120.644 94.118 121.507 93.4311 122.763C92.6725 124.15 93.2684 125.728 94.2444 127.047C95.2205 128.367 96.5635 129.548 97.4312 130.904C98.0584 131.862 98.4257 132.94 98.5031 134.051C98.5804 135.162 98.3657 136.274 97.8763 137.295C96.9621 139.202 95.0863 141.064 95.6848 143.03C96.1702 144.625 98.2364 146.22 97.125 147.654C96.5054 148.453 95.1004 148.785 93.8022 148.862C90.6278 149.049 87.3595 148.054 85.3975 146.303C83.4553 144.569 82.498 142.042 79.5381 141.283C78.4517 141.005 77.2453 141.024 76.1566 140.75C75.1492 140.494 74.2504 139.971 73.5769 139.248C72.9034 138.525 72.4862 137.636 72.3797 136.697C72.0467 133.887 74.0147 131.196 76.2968 128.869C77.946 127.193 79.7423 125.64 81.6682 124.225C84.3906 122.217 87.5046 120.342 89.0711 117.804C90.8702 114.889 90.2395 111.312 87.4814 108.788C86.4596 107.853 85.1749 107.057 84.2994 106.053C83.2456 104.843 81.4104 100.517 83.589 99.4919C85.9704 98.3708 90.0649 102.733 91.3898 103.729Z" fill="#3F3D56"/>
<path d="M68.2689 280.706L63.9805 305.857C63.9805 305.857 71.2709 321.72 77.7036 321.72C84.1363 321.72 87.996 320.947 87.996 320.173C87.996 319.399 83.7075 314.756 81.5632 313.982C79.419 313.208 77.2747 304.696 77.2747 302.374C77.2747 300.053 79.419 280.706 79.419 280.706H68.2689Z" fill="#A0616A"/>
<path opacity="0.1" d="M68.2689 280.706L63.9805 305.857C63.9805 305.857 71.2709 321.72 77.7036 321.72C84.1363 321.72 87.996 320.947 87.996 320.173C87.996 319.399 83.7075 314.756 81.5632 313.982C79.419 313.208 77.2747 304.696 77.2747 302.374C77.2747 300.053 79.419 280.706 79.419 280.706H68.2689Z" fill="black"/>
<path d="M78.9902 304.696C78.9902 304.696 65.2671 302.761 63.9806 301.987C62.694 301.213 58.4055 317.077 65.2671 321.72C72.1287 326.364 76.846 325.59 78.1325 325.59C79.4191 325.59 85.8518 325.59 87.1383 324.816C88.4249 324.042 89.2826 319.399 87.996 317.464C86.7095 315.53 81.5633 313.595 81.1345 311.66C80.7056 309.726 78.9902 304.696 78.9902 304.696Z" fill="#2F2E41"/>
<path opacity="0.1" d="M78.9902 304.696C78.9902 304.696 65.2671 302.761 63.9806 301.987C62.694 301.213 58.4055 317.077 65.2671 321.72C72.1287 326.364 76.846 325.59 78.1325 325.59C79.4191 325.59 85.8518 325.59 87.1383 324.816C88.4249 324.042 89.2826 319.399 87.996 317.464C86.7095 315.53 81.5633 313.595 81.1345 311.66C80.7056 309.726 78.9902 304.696 78.9902 304.696Z" fill="black"/>
<path d="M58.4053 281.867C58.4053 281.867 58.8341 297.731 51.5437 300.053C44.2533 302.374 59.6918 312.047 59.6918 312.047L66.5534 307.017L71.6996 279.159L58.4053 281.867Z" fill="#A0616A"/>
<path d="M54.5459 294.249C54.5459 294.249 55.9571 305.32 66.616 302.687C66.616 302.687 67.8402 317.077 69.5556 319.012C71.271 320.947 75.9883 326.751 68.2691 326.751C60.5498 326.751 55.4036 326.364 52.8305 323.655C50.2575 320.947 44.2536 314.756 42.5382 313.982C40.8228 313.208 48.1132 296.57 49.3998 296.57C50.6863 296.57 54.5459 294.249 54.5459 294.249Z" fill="#2F2E41"/>
<path d="M48.9708 201.774C48.9708 201.774 46.8265 211.447 52.4016 222.668C57.9766 233.889 63.1228 260.586 60.5497 264.456C57.9766 268.325 53.2593 284.576 57.9766 286.897C62.6939 289.219 95.2864 290.767 97.4306 288.445C99.5749 286.123 97.4306 261.36 93.571 257.878C89.7113 254.396 96.5729 216.477 96.5729 216.477L94.4287 207.578L48.9708 201.774Z" fill="#3F3D56"/>
<path d="M80.706 129.806C88.9956 129.806 95.7156 123.743 95.7156 116.264C95.7156 108.784 88.9956 102.721 80.706 102.721C72.4164 102.721 65.6963 108.784 65.6963 116.264C65.6963 123.743 72.4164 129.806 80.706 129.806Z" fill="#A0616A"/>
<path d="M71.2711 120.907C71.2711 120.907 65.696 133.288 57.9768 134.836C50.2575 136.384 48.1133 158.825 48.1133 158.825L83.2788 152.634L94 148.378C94 148.378 94.8577 139.092 90.9981 137.157C87.1385 135.223 79.4192 135.997 79.4192 135.997C79.4192 135.997 79.4192 128.258 83.2788 126.71C87.1385 125.163 71.2711 120.907 71.2711 120.907Z" fill="#A0616A"/>
<path d="M71.2707 149.539C71.2707 149.539 70.413 134.449 57.9764 136.384C57.9764 136.384 55.4033 135.61 49.8283 142.961L48.1129 139.866C48.1129 139.866 55.4033 133.778 59.6918 134.307C63.9803 134.836 66.5534 132.514 75.5592 149.539L87.9957 147.991L86.7092 134.449H87.9957L91.4265 146.057C91.4265 146.057 96.1439 146.057 96.5727 149.539V153.021C96.5727 153.021 103.863 157.664 102.577 167.725C101.29 177.785 100.861 186.684 100.861 186.684C100.861 186.684 99.1458 199.839 100.861 204.482C102.577 209.125 112.44 221.507 104.721 222.668C97.0016 223.829 93.9996 223.829 93.9996 223.829L92.2842 213.769C92.2842 213.769 93.5708 218.025 85.4227 218.412C77.2746 218.799 53.2591 212.608 53.2591 211.834C53.2591 211.06 54.1168 203.322 51.9725 204.869C49.8283 206.417 48.9706 214.542 45.9686 214.542C42.9667 214.542 50.686 182.815 50.686 182.815L48.1129 158.825V156.117C48.1129 156.117 64.8379 157.664 71.2707 149.539Z" fill="#D0CDE1"/>
<path d="M57.1189 138.318C57.1189 138.318 48.1131 145.283 47.2554 167.337C46.3977 189.392 74.7017 207.965 74.7017 207.965C74.7017 207.965 82.421 231.18 87.996 225.763C93.571 220.346 80.7056 202.548 80.7056 202.548L60.9786 178.945L66.9824 144.509C66.9824 144.509 66.9824 136.384 57.1189 138.318Z" fill="#A0616A"/>
<path d="M49.5183 150.091C49.5183 150.091 45.9686 150.7 45.1109 155.73C44.2532 160.76 48.5417 165.403 50.6859 165.403C52.8301 165.403 73.8437 161.921 76.4168 158.825C78.9899 155.73 85.8515 156.891 85.8515 156.891L71.2706 149.926C71.2706 149.926 60.6088 158.691 48.5713 155.276L49.5183 150.091Z" fill="#D0CDE1"/>
<path d="M97.4315 130.904C96.5638 129.548 95.2208 128.367 94.2447 127.047C93.4973 126.138 93.095 125.036 93.0976 123.904C91.7238 125.72 89.8802 127.206 87.7263 128.235C85.5724 129.263 83.1731 129.802 80.7363 129.805C79.4208 132.609 79.419 136.384 79.419 136.384C79.419 136.384 81.9356 140.651 78.9854 141.168C79.172 141.201 79.3573 141.237 79.5384 141.283C82.4983 142.042 83.4556 144.57 85.3978 146.303C87.3598 148.054 90.6281 149.049 93.8025 148.862C95.1007 148.786 96.5057 148.453 97.1253 147.654C98.2367 146.22 96.1705 144.625 95.6851 143.03C95.0866 141.064 96.9624 139.202 97.8766 137.295C98.366 136.274 98.5808 135.162 98.5034 134.051C98.426 132.94 98.0587 131.862 97.4315 130.904Z" fill="#3F3D56"/>
<path d="M66.0249 97.657C64.478 98.2697 63.0336 99.0745 61.7337 100.048C58.4672 102.386 55.6299 105.321 54.0772 108.812C52.5246 112.304 52.3659 116.392 54.2006 119.77C55.017 121.273 56.2361 122.727 56.1699 124.4C56.0855 126.531 53.957 128.103 51.8762 129.114C49.7954 130.124 47.4432 130.978 46.171 132.775C44.0429 135.781 45.9197 139.912 44.4836 143.235C43.9961 144.363 43.1204 145.539 43.581 146.676C46.499 146.949 49.3448 145.691 51.6737 144.081C54.0027 142.472 55.997 140.489 58.3796 138.945C61.5895 136.865 65.4897 135.586 68.1421 132.942C69.4592 131.603 70.3918 129.992 70.858 128.252C71.3243 126.511 71.3099 124.694 70.8162 122.96C70.5426 122.037 70.1287 121.124 70.1579 120.169C70.2061 118.597 71.4364 117.264 72.743 116.223C74.0496 115.181 75.5334 114.25 76.4047 112.888C77.2802 111.519 77.4292 109.88 77.9716 108.377C78.514 106.874 79.7222 105.342 81.4683 105.213C82.5311 105.134 83.5406 105.596 84.4836 106.046L89.4387 108.406C89.9373 108.71 90.5329 108.856 91.1329 108.822C92.2257 108.644 92.6285 107.407 92.5837 106.406C92.436 103.106 89.853 100.174 86.6307 98.6056C83.6347 97.1475 80.1041 96.6662 76.7336 96.6712C73.1681 96.6765 69.3902 96.4054 66.0249 97.657Z" fill="#3F3D56"/>
<path d="M141.185 103.001C145.865 104.389 149.637 107.787 151.734 111.808C152.527 113.272 153.039 114.845 153.25 116.463C153.593 119.481 152.595 122.486 151.45 125.339C150.548 127.586 149.539 130.052 150.463 132.292C150.783 133.068 151.322 133.765 151.587 134.558C151.822 135.308 151.807 136.104 151.544 136.847C151.28 137.589 150.781 138.245 150.107 138.733C149.163 139.393 147.865 139.747 147.335 140.713C148.373 140.722 149.103 141.602 149.662 142.392L152.321 146.153L142.355 151.393C142.169 148.131 141.477 144.909 140.299 141.82C140.242 141.604 140.113 141.41 139.928 141.262C139.687 141.142 139.406 141.101 139.134 141.148C137.184 141.295 135.273 141.721 133.34 141.999C128.991 142.624 124.389 142.472 120.384 140.818C118.923 140.281 117.652 139.394 116.708 138.253C115.829 137.081 115.524 135.486 116.246 134.229C117.344 132.316 120.177 131.894 121.927 130.427C122.706 133.224 126.209 134.874 129.397 134.67C130.17 134.635 130.929 134.47 131.635 134.184C133.09 133.56 134.075 132.307 134.906 131.061C137.146 127.568 138.903 123.841 140.137 119.963C140.53 118.91 140.798 117.823 140.937 116.72C141.253 113.324 139.168 109.899 135.955 108.109C132.741 106.319 129.454 107.061 125.949 108.331C127.128 107.904 127.05 105.763 127.989 105.033C129.167 104.148 130.519 103.472 131.974 103.04C134.96 102.132 138.191 102.118 141.185 103.001Z" fill="#D0CDE1"/>
<path d="M407.778 153.732C407.778 153.732 432.223 159.536 432.651 162.245C433.08 164.953 420.215 172.338 420.215 172.338L393.197 160.697L407.778 153.732Z" fill="#3F3D56"/>
<path opacity="0.1" d="M407.778 153.732C407.778 153.732 432.223 159.536 432.651 162.245C433.08 164.953 420.215 172.338 420.215 172.338L393.197 160.697L407.778 153.732Z" fill="black"/>
<path d="M420.43 149.283C420.43 149.283 412.71 157.795 403.276 157.021C393.841 156.247 414.855 175.207 414.855 175.207L425.576 166.694C425.576 166.694 428.578 155.474 431.151 155.087C433.724 154.7 420.43 149.283 420.43 149.283Z" fill="#CF9595"/>
<path opacity="0.1" d="M420.43 149.283C420.43 149.283 412.71 157.795 403.276 157.021C393.841 156.247 414.855 175.207 414.855 175.207L425.576 166.694C425.576 166.694 428.578 155.474 431.151 155.087C433.724 154.7 420.43 149.283 420.43 149.283Z" fill="black"/>
<path d="M468.032 264.586C468.032 264.586 469.318 271.551 465.459 273.099C461.599 274.646 453.88 298.249 453.88 298.249L461.17 304.827L481.755 274.646C481.755 274.646 487.759 263.813 485.615 263.813C483.47 263.813 468.032 264.586 468.032 264.586Z" fill="#FFB9B9"/>
<path opacity="0.1" d="M468.032 264.586C468.032 264.586 469.318 271.551 465.459 273.099C461.599 274.646 453.88 298.249 453.88 298.249L461.17 304.827L481.755 274.646C481.755 274.646 487.759 263.813 485.615 263.813C483.47 263.813 468.032 264.586 468.032 264.586Z" fill="black"/>
<path d="M455.595 297.475L453.879 296.701C453.879 296.701 444.016 301.344 445.302 303.666C446.589 305.987 449.591 310.63 449.591 312.178C449.591 313.726 451.306 323.012 456.881 323.786C462.456 324.56 462.456 319.917 461.598 317.982C460.741 316.047 460.312 309.47 460.741 307.148C461.114 305.526 461.784 303.972 462.723 302.549L455.595 297.475Z" fill="#2F2E41"/>
<path d="M447.018 262.652C447.018 262.652 445.731 291.671 454.737 303.666C454.737 303.666 458.168 312.178 458.597 312.952C459.025 313.726 466.316 310.244 466.316 310.244C466.316 310.244 462.456 287.028 462.885 283.159C463.314 279.29 460.741 274.26 460.741 274.26L460.312 262.652H447.018Z" fill="#FFB9B9"/>
<path d="M467.174 308.309L458.219 312.127C458.219 312.127 459.026 317.982 459.454 319.143C459.883 320.304 453.451 328.816 460.312 329.59C467.174 330.364 474.035 329.59 472.32 327.655C470.605 325.721 468.031 317.208 468.46 314.887C468.889 312.565 467.174 308.309 467.174 308.309Z" fill="#2F2E41"/>
<path d="M449.162 154.7C449.162 154.7 443.587 154.313 442.729 169.016C442.202 177.522 442.202 186.047 442.729 194.553L456.452 194.94L455.166 171.725L449.162 154.7Z" fill="#FFB9B9"/>
<path d="M465.458 143.479C465.458 143.479 466.745 151.991 460.741 152.765C454.737 153.539 467.602 165.534 467.602 165.534L484.328 157.021C484.328 157.021 477.895 146.574 481.326 141.544C484.756 136.514 465.458 143.479 465.458 143.479Z" fill="#FFB9B9"/>
<path opacity="0.1" d="M465.458 143.479C465.458 143.479 466.745 151.991 460.741 152.765C454.737 153.539 467.602 165.534 467.602 165.534L484.328 157.021C484.328 157.021 477.895 146.574 481.326 141.544C484.756 136.514 465.458 143.479 465.458 143.479Z" fill="black"/>
<path d="M431.15 160.504C439.44 160.504 446.16 154.441 446.16 146.961C446.16 139.482 439.44 133.419 431.15 133.419C422.861 133.419 416.141 139.482 416.141 146.961C416.141 154.441 422.861 160.504 431.15 160.504Z" fill="#CF9595"/>
<path d="M471.463 148.122C479.752 148.122 486.472 142.059 486.472 134.58C486.472 127.1 479.752 121.037 471.463 121.037C463.173 121.037 456.453 127.1 456.453 134.58C456.453 142.059 463.173 148.122 471.463 148.122Z" fill="#FFB9B9"/>
<path d="M386.122 182.171C386.122 182.171 385.693 196.488 386.122 198.809C386.551 201.131 383.549 220.864 383.549 220.864L392.983 214.673C392.983 214.673 400.274 193.779 397.272 188.362C394.27 182.945 386.122 182.171 386.122 182.171Z" fill="#CF9595"/>
<path d="M435.439 188.362C435.439 188.362 433.724 199.97 439.299 200.744C444.874 201.518 446.161 191.845 446.161 191.845L444.016 182.171L435.439 188.362Z" fill="#CF9595"/>
<path d="M423.032 143.992C423.804 144.625 424.578 145.317 425.573 145.601C427.239 146.076 429.268 145.336 430.689 146.254C432.04 147.126 432.147 149.118 433.625 149.803C434.242 150.032 434.911 150.124 435.575 150.069L440.802 150.013C440.673 150.312 440.616 150.633 440.634 150.954C440.653 151.274 440.748 151.588 440.911 151.873C441.075 152.158 441.305 152.409 441.584 152.607C441.864 152.806 442.187 152.949 442.533 153.026C443.08 153.119 443.766 153.096 444.037 153.535C444.33 154.009 444.192 154.953 444.778 154.828C445.458 153.777 446.403 152.884 447.536 152.223C448.175 151.851 448.901 151.527 449.283 150.934C449.808 150.115 449.502 149.092 449.465 148.147C449.348 145.204 451.982 142.453 451.312 139.572C451.109 138.853 450.804 138.161 450.404 137.512L447.06 131.489C446.469 130.425 445.782 129.277 444.561 128.824C442.714 128.138 440.733 129.359 438.766 129.672C436.53 130.027 434.307 129.183 432.124 128.624C429.94 128.064 427.333 127.862 425.641 129.228C424.954 129.783 424.478 130.56 423.676 130.97C422.307 131.67 420.144 131.26 419.447 132.533C419.105 133.157 419.331 133.92 419.108 134.586C418.803 135.496 417.774 136.005 416.915 136.554C416.057 137.103 415.222 138.013 415.572 138.909C415.721 139.29 416.067 139.59 416.207 139.975C416.463 140.682 415.966 141.408 415.583 142.067C414.304 144.266 416.408 144.692 418.001 143.704C419.943 142.502 421.078 142.391 423.032 143.992Z" fill="#3F3D56"/>
<path d="M461.17 150.057C461.17 150.057 462.028 157.795 468.89 157.795C475.751 157.795 482.114 152.627 482.114 152.627C482.114 152.627 494.192 155.474 494.192 157.021C494.192 158.569 484.328 169.79 484.328 169.79C484.328 169.79 480.04 199.196 481.755 200.744C483.471 202.292 501.482 257.622 498.48 262.265C495.478 266.908 496.765 266.908 476.609 268.069C456.453 269.23 454.738 273.099 446.161 267.295C437.584 261.491 436.297 258.009 432.866 257.622C429.436 257.235 425.576 214.673 429.007 208.869C432.438 203.065 438.442 195.714 440.586 194.166C442.73 192.618 447.808 177.87 447.808 177.87L447.876 153.926L461.17 150.057Z" fill="#FF6584"/>
<path d="M490.332 156.247C490.332 156.247 500.195 155.087 497.193 164.373C494.191 173.659 489.903 190.684 483.041 191.458C476.18 192.231 484.328 169.016 484.328 169.016L490.332 156.247Z" fill="#FFB9B9"/>
<path d="M469.174 120.171C473.903 119.233 478.914 119.016 483.532 120.328C488.15 121.64 492.324 124.639 494.03 128.727C495.735 132.816 494.534 137.943 490.652 140.554C488.63 141.915 486.046 142.561 484.262 144.169C482.338 145.905 481.399 148.693 478.84 149.525C478.275 147.816 478.215 146.002 478.669 144.266C478.99 143.361 479.218 142.431 479.352 141.489C479.404 140.54 479.029 139.491 478.11 139.028C477.133 138.537 475.921 138.852 474.805 138.777C472.029 138.593 470.232 136.081 469.189 133.752C468.146 131.423 467.212 128.779 464.804 127.519C462.536 126.332 460.022 126.878 457.603 127.182C457.24 125.983 460.969 123.375 462.064 122.705C464.236 121.465 466.649 120.605 469.174 120.171Z" fill="#3F3D56"/>
<path d="M488.187 182.171C488.187 182.171 484.327 166.694 484.327 164.76C484.327 162.825 482.183 153.539 483.47 151.218C484.756 148.896 487.758 135.741 483.041 136.901C478.324 138.062 476.179 154.7 476.179 154.7C476.179 154.7 477.037 164.373 476.179 167.468C475.322 170.564 475.75 191.071 478.752 191.458C481.754 191.845 488.187 189.91 488.187 182.171Z" fill="#FFB9B9"/>
<path d="M492.262 134.386C497.472 134.386 501.696 130.575 501.696 125.874C501.696 121.173 497.472 117.362 492.262 117.362C487.051 117.362 482.827 121.173 482.827 125.874C482.827 130.575 487.051 134.386 492.262 134.386Z" fill="#3F3D56"/>
<path d="M391.053 160.697C391.053 160.697 382.69 171.725 382.69 184.493C382.69 184.493 392.983 184.106 398.987 191.845C404.991 199.583 391.053 160.697 391.053 160.697Z" fill="#3F3D56"/>
<path d="M389.981 294.767C389.981 294.767 396.414 307.148 396.414 313.339C396.414 319.53 409.708 314.5 409.708 314.5C409.708 314.5 401.132 294.38 401.989 291.671C402.847 288.963 389.981 294.767 389.981 294.767Z" fill="#CF9595"/>
<path d="M413.568 293.993C413.568 293.993 415.371 317.046 413.183 319.062C410.995 321.077 421.717 319.917 421.717 319.917C421.717 319.917 421.717 302.505 425.147 295.54L413.568 293.993Z" fill="#CF9595"/>
<path d="M395.128 213.125C395.128 213.125 382.262 218.542 382.262 220.864C382.262 223.185 380.118 234.793 379.26 235.954C378.403 237.115 378.403 247.562 379.26 249.109C380.118 250.657 381.834 298.249 388.266 298.249C394.699 298.249 403.705 295.54 404.134 293.219C404.134 293.219 398.13 271.938 400.274 266.521C402.418 261.104 403.276 243.306 407.564 240.984C411.853 238.662 411.853 243.306 411.853 243.306L410.995 275.807C410.995 275.807 410.138 296.701 411.853 297.088C413.568 297.475 424.718 299.023 426.005 297.475C427.291 295.927 431.58 274.646 431.58 272.325C431.58 270.003 435.868 245.24 436.297 242.532C436.726 239.823 438.013 216.608 435.011 215.06C432.009 213.512 395.128 213.125 395.128 213.125Z" fill="#2F2E41"/>
<path d="M401.989 312.952C401.989 312.952 397.7 309.857 395.127 315.66C393.649 319.073 391.298 322.123 388.266 324.56C388.266 324.56 386.55 328.429 393.841 327.655C401.131 326.881 413.568 319.917 413.568 319.917C413.568 319.917 410.507 312.844 409.036 312.898C407.564 312.952 406.706 315.661 401.989 312.952Z" fill="#2F2E41"/>
<path d="M420 317.208C420 317.208 413.572 315.661 412.283 317.208C410.995 318.756 409.279 327.655 411.423 328.816C413.568 329.977 423.002 329.59 424.289 328.816C425.575 328.042 424.289 323.012 424.289 323.012L420 317.208Z" fill="#2F2E41"/>
<path d="M412.71 163.212C412.71 163.212 406.277 158.182 407.993 153.926C407.993 153.926 388.694 159.73 389.123 164.373C389.552 169.016 397.271 188.362 397.271 188.362C397.271 188.362 384.835 210.03 391.267 214.673C397.7 219.316 395.985 213.899 407.135 217.382C418.285 220.864 423.002 219.316 427.291 218.542C431.579 217.769 432.437 218.155 435.439 218.155C438.441 218.155 436.725 210.417 435.439 206.161C434.152 201.905 432.437 195.714 433.724 194.166C435.01 192.618 446.16 165.534 446.16 165.534C446.16 165.534 437.5 159.278 427.249 161.439C427.249 161.439 420 166.694 412.71 163.212Z" fill="#3F3D56"/>
<path d="M441.872 166.694C441.872 166.308 446.16 165.534 446.16 165.534C446.16 165.534 448.734 181.011 447.447 184.106C446.16 187.201 435.439 190.684 433.724 190.297C432.008 189.91 441.872 166.694 441.872 166.694Z" fill="#3F3D56"/>
<path d="M432.43 137.451C438.009 137.451 442.532 133.37 442.532 128.337C442.532 123.304 438.009 119.223 432.43 119.223C426.852 119.223 422.329 123.304 422.329 128.337C422.329 133.37 426.852 137.451 432.43 137.451Z" fill="#3F3D56"/>
</g>
<defs>
<clipPath id="clip0_22_299">
<rect width="532" height="340" fill="white"/>
</clipPath>
</defs>
</svg>
