<svg width="330" height="232" viewBox="0 0 330 232" fill="none" xmlns="http://www.w3.org/2000/svg">
<path d="M260.775 231.579C259.135 231.578 257.502 231.352 255.922 230.908L190.343 213.362L190.536 212.672L256.115 230.219C257.632 230.645 259.2 230.861 260.775 230.862C268.493 230.862 275.338 226.392 277.421 218.966L324.103 52.5532H324.103L324.205 52.191C325.431 47.7816 324.859 43.0661 322.614 39.0775C320.368 35.0889 316.633 32.1524 312.227 30.9112L206.816 1.36368C202.403 0.132649 197.682 0.701361 193.688 2.94509C189.694 5.18882 186.753 8.92439 185.51 13.3325L181.848 26.3914L181.158 26.198L184.82 13.1391C186.114 8.54805 189.177 4.65743 193.337 2.32062C197.496 -0.0161813 202.413 -0.608375 207.009 0.673939L312.42 30.2214C316.953 31.498 320.806 34.4978 323.154 38.5787C325.502 42.6596 326.159 47.4973 324.983 52.056L324.986 52.0569L324.89 52.4018L278.111 219.159C275.942 226.893 268.813 231.579 260.775 231.579Z" fill="white"/>
<path d="M185.947 30.11L187.147 30.4467L190.841 31.4818L191.228 30.0992L189.845 29.7124L191.06 25.3821L193.98 22.8463L194.757 31.0914L192.608 30.4861L192.221 31.8686L197.738 33.4159L198.125 32.0333L196.954 31.7074L195.829 21.2417L201.562 16.2595L203.17 16.7108L203.557 15.3283L198.036 13.781L197.649 15.1635L199.469 15.6721L192.178 21.3993L194.198 14.1965L195.581 14.5833L195.968 13.2007L190.447 11.6534L190.06 13.036L192.131 13.6162L187.778 29.1322L185.707 28.5519L185.653 28.7382L185.431 29.5405L185.947 30.11Z" fill="#EF0F2A"/>
<path d="M194.829 43.1832C193.45 43.7801 192.105 44.4509 190.798 45.1926C190.558 45.3287 190.318 45.4684 190.081 45.608V41.1775C190.083 39.5836 189.858 37.9977 189.411 36.4675C189.619 36.3386 189.831 36.1989 190.038 36.0592C190.228 35.9338 190.422 35.8049 190.612 35.676C191.791 38.299 193.202 40.8114 194.829 43.1832Z" fill="#EF0F2A"/>
<path d="M260.498 219.144L258.891 218.693L258.504 220.073L264.024 221.62L264.411 220.241L262.593 219.731L269.883 214.002L267.861 221.208L266.481 220.821L266.094 222.2L271.614 223.747L272.001 222.368L269.931 221.788L274.285 206.269L276.355 206.849L276.742 205.47L271.222 203.922L270.835 205.302L272.215 205.688L271 210.02L268.081 212.556L267.305 204.312L269.455 204.915L269.842 203.535L264.322 201.988L263.935 203.367L265.108 203.696L266.233 214.161L260.498 219.144Z" fill="#EFD90F"/>
<path d="M267.23 192.22C269.814 191.112 272.271 189.731 274.561 188.101C275.788 190.7 277.198 193.209 278.781 195.608C276.215 196.749 273.76 198.128 271.451 199.726C270.27 197.104 268.857 194.592 267.23 192.22Z" fill="#EF0F2A"/>
<path d="M218.888 117.645C218.888 117.645 217.076 129.413 216.537 130.006C215.999 130.599 220.299 144.452 220.299 144.452L234.09 136.414C234.09 136.414 236.773 121.543 237.657 121.047C238.54 120.55 218.888 117.645 218.888 117.645Z" fill="#FFB8B8"/>
<path opacity="0.1" d="M218.888 117.645C218.888 117.645 217.076 129.413 216.537 130.006C215.999 130.599 220.299 144.452 220.299 144.452L234.09 136.414C234.09 136.414 236.773 121.543 237.657 121.047C238.54 120.55 218.888 117.645 218.888 117.645Z" fill="black"/>
<path d="M229.558 129.039C237.077 129.039 243.173 122.945 243.173 115.428C243.173 107.911 237.077 101.818 229.558 101.818C222.038 101.818 215.942 107.911 215.942 115.428C215.942 122.945 222.038 129.039 229.558 129.039Z" fill="#FFB8B8"/>
<path d="M223.656 136.465L222.47 135.389L217.137 127.801C217.137 127.801 216.524 127.398 215.944 129.468L215.364 131.537L210.353 133.48L199.266 180.962L228.936 189.279L241.155 141.742L235.415 135.67L234.78 132.74L225.92 136.356L223.656 136.465Z" fill="white"/>
<path d="M190.082 185.828L190.798 186.029L237.005 198.98L252.456 147.887C252.456 147.887 248.801 145 245.942 144.571C245.942 144.571 241.14 139.133 239.073 138.553C237.002 137.973 234.712 132.869 234.712 132.869C234.712 132.869 232.294 141.49 228.137 147.02C223.981 152.551 216.743 171.727 216.743 171.727L214.701 136.558L216.994 127.715C215.661 128.505 214.447 129.48 213.389 130.613C211.773 132.389 207.649 133.836 207.649 133.836C207.649 133.836 196.785 136.745 194.865 136.952C192.948 137.156 192.063 137.654 192.063 137.654L190.798 146.354L190.082 151.283V185.828Z" fill="#2F2E41"/>
<path d="M196.388 166.021C195.958 168.876 191.536 180.656 191.536 180.656L190.798 181.398L190.082 182.118V138.489C190.281 138.272 190.526 138.103 190.798 137.991C191.203 137.823 191.628 137.71 192.063 137.654L193.446 138.041C193.446 138.041 196.818 163.163 196.388 166.021Z" fill="#2F2E41"/>
<path d="M227.862 181.167C227.862 181.167 234.644 168.932 239.777 171.859C244.91 174.786 236.681 182.895 236.681 182.895L227.862 181.167Z" fill="#FFB8B8"/>
<path d="M206.872 176.399C206.872 176.399 193.859 172.379 193.569 173.414C193.279 174.448 189.715 180.517 190.75 180.808C191.785 181.098 199.817 182.977 199.72 183.322C199.624 183.667 203.57 185.517 203.57 185.517L206.872 176.399Z" fill="#FFB8B8"/>
<path d="M232.242 137.713L223.959 138.038L222.234 137.555L215.329 132.972L213.042 139.814L221.751 139.279L223.476 139.762L230.637 144.746L232.242 137.713Z" fill="#EF0F2A"/>
<path d="M209.985 189.177L208.713 191.885L190.44 186.871L190.082 185.828V180.087L190.798 180.366L191.536 180.656L209.985 189.177Z" fill="#2F2E41"/>
<path d="M210.667 177.463C210.667 177.463 206.376 175.516 206.279 175.861C206.182 176.205 200.423 186.123 201.803 186.51C203.183 186.896 208.068 189.382 208.068 189.382L210.667 177.463Z" fill="white"/>
<path d="M250.04 147.209L252.455 147.886C252.455 147.886 253.835 148.273 253.945 150.535C254.054 152.798 255.927 163.366 255.044 163.863C254.16 164.359 253.912 163.918 254.409 164.801C254.905 165.684 255.347 165.436 254.808 166.029C254.27 166.622 253.034 185.619 249.03 191.936C245.025 198.253 243.809 201.26 242.429 200.873L206.659 190.847C206.659 190.847 208.252 176.786 209.729 176.828C211.206 176.87 235.397 182.163 235.397 182.163C235.397 182.163 244.769 146.103 250.04 147.209Z" fill="#2F2E41"/>
<path d="M221.535 100.511L219.302 98.9093C219.302 98.9093 225.961 95.168 233.071 97.6486L231.606 95.0436C231.606 95.0436 237.088 94.6297 240.28 100.645C241.957 103.806 243.885 107.511 244.673 111.296L247.337 112.042L245.602 113.954L248.869 117.267L244.987 115.748C244.827 117.773 244.14 119.721 242.995 121.399L241.392 123.632C241.392 123.632 239.803 115.384 240.057 114.48L239.423 116.741C239.423 116.741 237.506 114.009 237.887 112.653L236.086 113.855L236.105 111.178L227.041 111.319L228.968 109.665L223.577 108.885L226.309 106.969C226.309 106.969 219.606 108.26 218.682 110.683C217.758 113.106 213.931 115.447 213.931 115.447L213.208 112.806C213.208 112.806 214.026 102.063 221.535 100.511Z" fill="#2F2E41"/>
<path d="M216.854 105.407L216.961 104.943C217.996 100.438 210.032 92.058 209.951 91.9739L209.81 91.8264L209.865 91.6295C210.023 91.0678 210.655 90.5689 216.193 91.7688C218.349 92.2361 220.499 92.8056 221.399 93.0497C221.299 90.477 218.108 87.0684 218.074 87.0323L217.673 86.6072L218.234 86.4426C221.912 85.3649 226.217 88.9394 227.593 90.2051L229.893 82.0067L234.444 88.7261C237.238 84.5454 241.279 84.7148 241.455 84.7245L242.023 84.7555L241.75 85.254C239.836 88.7552 239.491 91.055 239.471 92.1888C244.565 86.1397 249.155 86.6666 249.355 86.6929L250.05 86.7848L249.568 87.2942C242.9 94.3376 242.114 103.629 242.107 103.722L242.083 104.035L216.854 105.407ZM210.745 91.7732C212.153 93.2987 218.242 100.183 217.738 104.642L241.425 103.354C241.621 101.696 242.822 93.809 248.486 87.4148C246.942 87.5527 243.301 88.4321 239.466 93.3323L239.026 93.8938L238.838 93.2061C238.808 93.0977 238.167 90.5787 240.827 85.4615C239.608 85.5768 236.768 86.2151 234.761 89.564L234.472 90.0461L230.166 83.6874L227.955 91.5671L227.522 91.128C227.473 91.079 222.853 86.4542 219.011 87.0056C219.997 88.1536 222.357 91.1769 222.098 93.5538L222.052 93.9742L221.645 93.8601C217.12 92.5917 211.952 91.5094 210.745 91.7732Z" fill="#EFD90F"/>
<path d="M251.14 84.806C250.895 84.7374 250.676 84.5978 250.511 84.4048C250.345 84.2118 250.241 83.9742 250.211 83.7219C250.181 83.4696 250.226 83.214 250.341 82.9874C250.456 82.7609 250.636 82.5735 250.857 82.449C251.079 82.3245 251.332 82.2685 251.586 82.2881C251.839 82.3076 252.081 82.4019 252.281 82.5589C252.481 82.7159 252.63 82.9286 252.709 83.1701C252.787 83.4117 252.793 83.6712 252.724 83.9158C252.632 84.2437 252.413 84.5216 252.116 84.6884C251.819 84.8553 251.468 84.8976 251.14 84.806ZM251.64 83.0217C251.532 82.9913 251.417 82.9938 251.31 83.0287C251.203 83.0636 251.109 83.1294 251.04 83.2178C250.97 83.3061 250.929 83.4131 250.92 83.5252C250.911 83.6373 250.936 83.7494 250.991 83.8474C251.046 83.9454 251.129 84.0249 251.229 84.0758C251.33 84.1267 251.443 84.1467 251.555 84.1333C251.666 84.1199 251.771 84.0737 251.857 84.0006C251.942 83.9275 252.004 83.8307 252.034 83.7224C252.075 83.5773 252.056 83.422 251.982 83.2906C251.908 83.1593 251.785 83.0625 251.64 83.0217Z" fill="#EF0F2A"/>
<path d="M242.215 82.3042C241.97 82.2356 241.751 82.096 241.586 81.903C241.42 81.7101 241.316 81.4724 241.286 81.2201C241.255 80.9678 241.301 80.7122 241.416 80.4857C241.531 80.2591 241.711 80.0717 241.932 79.9472C242.154 79.8227 242.407 79.7667 242.661 79.7863C242.914 79.8058 243.156 79.9001 243.356 80.0571C243.556 80.2141 243.705 80.4268 243.784 80.6684C243.862 80.9099 243.868 81.1694 243.799 81.4141C243.707 81.7419 243.488 82.0198 243.191 82.1867C242.894 82.3536 242.543 82.3958 242.215 82.3042ZM242.715 80.5199C242.607 80.4896 242.492 80.492 242.385 80.5269C242.278 80.5618 242.184 80.6276 242.115 80.716C242.045 80.8044 242.004 80.9114 241.995 81.0234C241.986 81.1355 242.011 81.2477 242.066 81.3457C242.121 81.4437 242.204 81.5231 242.304 81.574C242.405 81.6249 242.518 81.6449 242.63 81.6315C242.741 81.6182 242.846 81.572 242.932 81.4988C243.017 81.4257 243.079 81.3289 243.109 81.2207C243.15 81.0755 243.131 80.9202 243.057 80.7889C242.983 80.6575 242.86 80.5608 242.715 80.5199Z" fill="#EF0F2A"/>
<path d="M228.648 80.9072C228.403 80.8386 228.184 80.699 228.019 80.5061C227.854 80.3131 227.749 80.0754 227.719 79.8231C227.689 79.5709 227.734 79.3153 227.849 79.0887C227.964 78.8621 228.144 78.6747 228.365 78.5503C228.587 78.4258 228.84 78.3698 229.094 78.3893C229.347 78.4089 229.589 78.5031 229.789 78.6601C229.989 78.8171 230.138 79.0299 230.217 79.2714C230.296 79.5129 230.301 79.7724 230.232 80.0171C230.14 80.345 229.921 80.6228 229.624 80.7897C229.327 80.9566 228.976 80.9989 228.648 80.9072ZM229.148 79.123C229.04 79.0926 228.925 79.095 228.818 79.1299C228.712 79.1648 228.617 79.2306 228.548 79.319C228.478 79.4074 228.437 79.5144 228.428 79.6265C228.419 79.7386 228.444 79.8507 228.499 79.9487C228.554 80.0467 228.637 80.1262 228.738 80.1771C228.838 80.2279 228.951 80.248 229.063 80.2346C229.174 80.2212 229.279 80.175 229.365 80.1019C229.45 80.0287 229.512 79.9319 229.542 79.8237C229.583 79.6785 229.564 79.5233 229.49 79.3919C229.417 79.2605 229.294 79.1638 229.148 79.123Z" fill="#EF0F2A"/>
<path d="M206.99 91.1954C206.745 91.1268 206.526 90.9872 206.361 90.7943C206.195 90.6013 206.091 90.3636 206.061 90.1113C206.03 89.8591 206.076 89.6035 206.191 89.3769C206.306 89.1503 206.485 88.9629 206.707 88.8385C206.929 88.714 207.182 88.658 207.436 88.6775C207.689 88.6971 207.931 88.7913 208.131 88.9483C208.331 89.1053 208.48 89.3181 208.558 89.5596C208.637 89.8011 208.643 90.0606 208.574 90.3053C208.482 90.6332 208.263 90.911 207.966 91.0779C207.669 91.2448 207.318 91.2871 206.99 91.1954ZM207.49 89.4112C207.382 89.3808 207.267 89.3832 207.16 89.4181C207.053 89.453 206.959 89.5188 206.89 89.6072C206.82 89.6956 206.778 89.8026 206.77 89.9147C206.761 90.0268 206.786 90.1389 206.841 90.2369C206.896 90.3349 206.979 90.4144 207.079 90.4652C207.18 90.5161 207.293 90.5362 207.404 90.5228C207.516 90.5094 207.621 90.4632 207.707 90.3901C207.792 90.3169 207.854 90.2201 207.884 90.1119C207.925 89.9668 207.906 89.8115 207.832 89.6801C207.758 89.5487 207.635 89.452 207.49 89.4112Z" fill="#EF0F2A"/>
<path d="M215.364 85.3633C215.12 85.2947 214.901 85.1551 214.735 84.9621C214.57 84.7691 214.466 84.5315 214.435 84.2792C214.405 84.0269 214.45 83.7713 214.565 83.5447C214.681 83.3182 214.86 83.1308 215.082 83.0063C215.303 82.8818 215.557 82.8258 215.81 82.8454C216.064 82.8649 216.306 82.9592 216.506 83.1162C216.706 83.2732 216.854 83.4859 216.933 83.7274C217.012 83.969 217.018 84.2285 216.949 84.4731C216.857 84.801 216.638 85.0788 216.341 85.2457C216.044 85.4126 215.693 85.4549 215.364 85.3633ZM215.865 83.579C215.757 83.5486 215.642 83.5511 215.535 83.586C215.428 83.6209 215.334 83.6867 215.264 83.7751C215.195 83.8634 215.153 83.9704 215.145 84.0825C215.136 84.1946 215.161 84.3067 215.216 84.4047C215.271 84.5027 215.354 84.5822 215.454 84.6331C215.554 84.684 215.668 84.704 215.779 84.6906C215.891 84.6772 215.996 84.6311 216.081 84.5579C216.167 84.4848 216.229 84.388 216.259 84.2797C216.3 84.1346 216.281 83.9793 216.207 83.8479C216.133 83.7166 216.01 83.6199 215.865 83.579Z" fill="#EF0F2A"/>
<path d="M258.078 206.004L257.733 205.907L190.192 186.975L190.385 186.285L257.582 205.121L300.052 53.7235L205.35 27.178L190.905 78.6704L190.215 78.477L204.854 26.2947L205.198 26.3914L300.935 53.2274L300.838 53.5719L258.078 206.004Z" fill="white"/>
<path d="M14.9176 219.864C19.3708 228.119 28.8221 231.663 28.8221 231.663C28.8221 231.663 31.0533 221.822 26.6001 213.567C22.1469 205.311 12.6957 201.768 12.6957 201.768C12.6957 201.768 10.4645 211.608 14.9176 219.864Z" fill="#2F2E41"/>
<path d="M17.9786 217.148C26.0184 221.983 29.1148 231.587 29.1148 231.587C29.1148 231.587 19.176 233.352 11.1362 228.517C3.09639 223.681 0 214.077 0 214.077C0 214.077 9.93874 212.313 17.9786 217.148Z" fill="#EF0F2A"/>
<path d="M190.038 36.0592C189.422 34.029 188.442 32.1274 187.147 30.4466C186.686 29.846 186.187 29.2754 185.653 28.7382C184.016 27.0911 182.069 25.7842 179.925 24.8928C177.781 24.0015 175.481 23.5433 173.159 23.5447H63.6817C59.0048 23.5494 54.5209 25.4087 51.2139 28.7144C47.9069 32.0202 46.047 36.5024 46.0422 41.1774V214.367C46.047 219.042 47.9069 223.524 51.2139 226.83C54.5209 230.136 59.0048 231.995 63.6817 232H173.159C177.835 231.995 182.319 230.136 185.626 226.83C188.933 223.524 190.793 219.042 190.798 214.367V41.1774C190.8 39.4431 190.544 37.7182 190.038 36.0592ZM190.081 214.367C190.076 218.852 188.291 223.152 185.119 226.323C181.946 229.494 177.645 231.278 173.159 231.284H63.6817C59.1951 231.278 54.8939 229.494 51.7214 226.323C48.5489 223.152 46.7643 218.852 46.7588 214.367V41.1774C46.7643 36.6926 48.5489 32.393 51.7214 29.2217C54.8939 26.0504 59.1951 24.2664 63.6817 24.261H173.159C175.456 24.26 177.729 24.7277 179.839 25.6355C181.949 26.5433 183.852 27.8721 185.431 29.5405C185.606 29.7267 185.778 29.9165 185.946 30.1099C188.614 33.1807 190.082 37.1108 190.081 41.1774V214.367Z" fill="white"/>
<path d="M63.5068 51.378C63.487 51.3313 63.4624 51.2888 63.4405 51.2439C64.2486 49.6632 64.6565 47.9085 64.6282 46.1335C64.6282 40.5813 61.1572 36.7036 56.1876 36.7036C51.2181 36.7036 47.7471 40.5813 47.7471 46.1335C47.7471 51.6857 51.2181 55.5635 56.1876 55.5635C57.3607 55.5872 58.5244 55.3516 59.5957 54.8734C60.6671 54.3952 61.6194 53.6862 62.3848 52.7973C63.976 55.3711 67.0521 55.7107 67.1938 55.7249L67.3615 54.0789C67.2458 54.0665 64.515 53.7471 63.5068 51.378ZM56.1876 53.9091C52.1923 53.9091 49.4021 50.7117 49.4021 46.1335C49.4021 41.5554 52.1923 38.3579 56.1876 38.3579C60.1829 38.3579 62.9732 41.5554 62.9732 46.1335C62.9893 47.4388 62.7318 48.7329 62.2171 49.9326C59.7469 48.4323 55.1511 49.3288 54.5278 49.4601L54.8682 51.0791C56.5563 50.7258 59.9147 50.4423 61.3766 51.3592C60.7764 52.1656 59.9927 52.8175 59.0904 53.2609C58.188 53.7044 57.193 53.9266 56.1876 53.9091Z" fill="#EFD90F"/>
<path d="M56.7915 59.4986C56.2529 58.9609 55.5227 58.659 54.7615 58.6593C54.0003 58.6596 53.2704 58.962 52.7321 59.5C52.1939 60.0381 51.8914 60.7677 51.8911 61.5286C51.8908 62.2895 52.1928 63.0194 52.7307 63.5578L56.7915 67.6171L60.8523 63.5578C61.389 63.0192 61.69 62.2897 61.6893 61.5294C61.6885 60.7691 61.386 60.0402 60.8482 59.5026C60.3105 58.9651 59.5813 58.6627 58.8207 58.6619C58.0602 58.6612 57.3304 58.9621 56.7915 59.4986Z" fill="white"/>
<path d="M173.333 205.276C173.353 205.323 173.378 205.365 173.4 205.41C172.592 206.991 172.184 208.746 172.212 210.521C172.212 216.073 175.683 219.951 180.653 219.951C185.622 219.951 189.093 216.073 189.093 210.521C189.093 204.968 185.622 201.091 180.653 201.091C179.48 201.067 178.316 201.303 177.245 201.781C176.173 202.259 175.221 202.968 174.456 203.857C172.864 201.283 169.788 200.943 169.647 200.929L169.479 202.575C169.594 202.588 172.325 202.907 173.333 205.276ZM180.653 202.745C184.648 202.745 187.438 205.942 187.438 210.521C187.438 215.099 184.648 218.296 180.653 218.296C176.657 218.296 173.867 215.099 173.867 210.521C173.851 209.215 174.108 207.921 174.623 206.722C177.093 208.222 181.689 207.325 182.313 207.194L181.972 205.575C180.284 205.928 176.926 206.212 175.464 205.295C176.064 204.488 176.848 203.837 177.75 203.393C178.652 202.95 179.647 202.727 180.653 202.745V202.745Z" fill="#EFD90F"/>
<path d="M180.049 197.155C180.588 197.692 181.318 197.994 182.078 197.993C182.839 197.992 183.569 197.69 184.106 197.152C184.644 196.615 184.947 195.885 184.947 195.125C184.948 194.364 184.647 193.635 184.11 193.096L180.049 189.037L175.988 193.096C175.451 193.635 175.15 194.364 175.15 195.125C175.151 195.885 175.453 196.615 175.991 197.152C176.529 197.69 177.259 197.992 178.019 197.993C178.78 197.994 179.51 197.692 180.049 197.155Z" fill="#EF0F2A"/>
<path d="M127.251 121.938C122.373 113.699 112.722 113.315 112.722 113.315C112.722 113.315 103.318 112.113 97.2854 124.661C91.6624 136.357 83.9021 147.65 96.036 150.388L98.2278 143.569L99.5851 150.896C101.313 151.02 103.046 151.05 104.777 150.985C117.771 150.565 130.147 151.107 129.748 146.446C129.219 140.25 131.945 129.866 127.251 121.938Z" fill="#2F2E41"/>
<path d="M109.256 150.01C109.279 150.938 109.272 151.916 108.811 152.721C107.897 154.317 105.666 154.556 104.324 155.814C102.913 157.137 102.753 159.284 102.686 161.217C102.615 163.237 102.556 165.325 103.294 167.207C103.745 168.244 104.317 169.225 104.996 170.13C105.815 171.311 106.642 172.486 107.476 173.656C107.922 174.315 108.419 174.938 108.962 175.52C110.456 177.042 112.506 177.884 114.553 178.485C115.876 178.873 117.304 179.176 118.616 178.754C119.484 178.415 120.284 177.923 120.978 177.302C121.954 176.527 122.945 175.736 123.652 174.711C124.754 173.113 125.059 171.113 125.288 169.186C125.963 163.487 126.226 157.747 126.074 152.011C126.101 151.386 125.989 150.763 125.746 150.186C125.066 148.86 123.246 148.577 122.287 147.436C121.467 146.46 121.434 145.068 121.441 143.794L121.459 140.55C121.487 140.277 121.432 140.002 121.301 139.76C121.182 139.63 121.038 139.525 120.879 139.45C120.719 139.376 120.546 139.334 120.37 139.326C118.353 138.991 116.309 138.855 114.265 138.918C112.609 138.968 109.43 138.83 107.998 139.752C106.698 140.589 108.326 142.902 108.627 144.2C109.032 146.111 109.242 148.057 109.256 150.01Z" fill="#A0616A"/>
<path d="M113.058 144.44C120.301 144.44 126.173 138.57 126.173 131.33C126.173 124.089 120.301 118.219 113.058 118.219C105.815 118.219 99.9426 124.089 99.9426 131.33C99.9426 138.57 105.815 144.44 113.058 144.44Z" fill="#A0616A"/>
<path d="M107.657 163.803C106.823 162.564 106.137 161.231 105.612 159.832C105.143 158.415 105.02 156.832 105.576 155.447C104.159 154.625 102.235 155.29 101.203 156.563C100.171 157.835 99.8549 159.54 99.7639 161.175C99.6729 162.811 99.7694 164.47 99.4133 166.069C98.6257 169.606 95.7027 172.514 95.4854 176.132C95.2715 179.69 97.7127 182.79 98.9137 186.147C99.6415 188.239 99.9458 190.455 99.8087 192.666C99.7698 193.38 99.725 194.193 100.229 194.701C100.491 194.93 100.801 195.097 101.137 195.19C106.932 197.228 113.191 197.404 119.333 197.56L129.476 197.816C130.09 197.89 130.711 197.785 131.267 197.516C132.177 196.959 132.299 195.708 132.315 194.642C132.448 185.452 132.057 176.264 131.666 167.082C131.524 163.754 131.38 160.407 130.674 157.151C130.494 156.322 130.2 155.4 129.434 155.034C128.786 154.725 128.017 154.925 127.344 155.174C124.2 156.343 121.482 158.434 119.548 161.173C117.466 164.134 116.442 167.686 114.405 170.67C112.927 172.835 112.072 170.948 111.088 169.354C109.945 167.503 108.801 165.653 107.657 163.803Z" fill="white"/>
<path d="M106.087 155.673C105.829 155.856 105.575 156.049 105.331 156.254C104.418 157.007 103.6 157.868 102.895 158.818C101.727 160.41 100.798 162.163 100.136 164.022C98.9461 167.282 98.4301 170.742 97.9357 174.173C97.7199 175.437 97.6037 176.716 97.5881 177.998C97.6634 182.712 100.451 187.078 100.455 191.795C100.455 191.974 100.451 192.149 100.44 192.329C100.407 193.101 100.316 193.869 100.168 194.628C99.9637 195.735 99.6699 196.827 99.3797 197.916C98.6487 200.645 97.8605 203.475 96.4344 205.871C96.2911 206.115 96.137 206.355 95.9794 206.587H85.9468C86.0256 206.347 86.108 206.111 86.1868 205.871C87.896 200.81 89.6039 195.75 91.3106 190.692C91.8338 189.144 92.3569 187.59 92.7259 186C93.1481 184.036 93.4366 182.046 93.5895 180.043C93.9836 175.892 94.2428 171.733 94.367 167.565C94.4136 166.067 94.4458 164.538 94.9295 163.12C95.383 161.964 95.9827 160.871 96.7139 159.868C97.7494 158.309 98.7849 156.751 99.8204 155.193C100.397 154.327 101.003 153.435 101.891 152.894C102.633 152.439 103.515 152.274 104.296 151.891C104.787 151.612 105.259 151.3 105.707 150.956C106.875 150.129 108.248 149.259 109.255 150.104C109.418 150.239 109.558 150.4 109.67 150.58C109.728 150.669 109.779 150.761 109.824 150.856C110.792 152.948 107.388 154.753 106.087 155.673Z" fill="#2F2E41"/>
<path d="M139.138 206.587H92.6724C92.9232 206.358 93.1704 206.118 93.4105 205.871C93.4463 205.835 93.4785 205.799 93.5144 205.764C95.2916 203.919 95.6965 201.652 96.5886 199.252C97.2587 197.443 97.9287 195.636 98.5987 193.829C98.7048 193.478 98.8789 193.15 99.1111 192.866C99.3052 192.665 99.5487 192.52 99.817 192.443C100.02 192.381 100.229 192.342 100.44 192.329C100.742 192.309 101.045 192.309 101.347 192.329C109.685 192.758 118.017 193.282 126.342 193.901C127.417 193.983 128.492 194.066 129.567 194.148C130.445 194.8 131.312 195.491 132.14 196.222C134.831 198.586 137.163 201.369 138.5 204.657C138.661 205.054 138.808 205.459 138.93 205.871C139.009 206.107 139.077 206.347 139.138 206.587Z" fill="#2F2E41"/>
<path d="M125.094 121.144L115.56 116.151L102.393 118.194L99.6689 130.221L106.45 129.96L108.345 125.542V129.887L111.474 129.767L113.29 122.733L114.425 130.221L125.548 129.994L125.094 121.144Z" fill="#2F2E41"/>
<path d="M139.137 206.587H128.646C128.571 206.351 128.499 206.111 128.431 205.871C127.69 203.207 127.147 200.492 126.805 197.748C126.694 196.963 126.597 196.175 126.507 195.391C126.45 194.893 126.396 194.399 126.342 193.901C125.74 188.371 125.278 182.787 123.587 177.493C123.383 176.852 123.161 176.214 122.946 175.577C122.548 174.479 122.237 173.352 122.014 172.207C121.555 169.585 121.899 166.87 121.426 164.252C121.161 162.79 120.635 161.504 120.316 160.165C120.113 159.356 120.033 158.522 120.079 157.69C120.851 156.962 121.823 156.48 122.87 156.307C123.232 156.246 123.641 156.2 123.859 155.91C123.988 155.689 124.046 155.434 124.024 155.179C124.049 153.49 123.952 151.801 123.734 150.125C123.662 149.538 123.573 148.951 123.465 148.367C123.462 148.338 123.454 148.313 123.451 148.284C124.325 147.905 125.31 147.901 126.26 147.905C127.295 147.908 128.327 147.908 129.359 147.912C131.269 147.919 133.179 147.925 135.089 147.93C136.866 147.933 138.704 147.951 140.32 148.685C141.99 149.448 143.258 150.92 144.096 152.554C144.935 154.187 145.39 155.985 145.802 157.772C145.916 158.267 145.976 158.773 145.981 159.28C146.06 163.313 143.05 167.375 142.749 171.497C142.652 172.833 142.764 174.18 142.642 175.516C142.52 176.856 142.162 178.167 142.097 179.506C142.094 179.574 142.09 179.646 142.09 179.714C142.051 181.458 142.559 183.167 143.147 184.811C144.057 187.364 145.164 189.839 146.307 192.3C147.411 194.682 148.543 197.053 149.561 199.467C150.09 200.588 150.446 201.782 150.618 203.009C150.731 203.996 150.542 204.994 150.077 205.871C149.957 206.088 149.814 206.291 149.65 206.476L149.643 206.483C149.611 206.519 149.579 206.555 149.546 206.587H139.137Z" fill="#2F2E41"/>
<path d="M149.131 202.912C149.087 203.389 148.957 203.854 148.747 204.284C148.729 204.327 148.711 204.367 148.694 204.41C148.486 204.9 148.274 205.384 148.056 205.871C147.948 206.107 147.841 206.347 147.73 206.587H141.796C142.011 206.363 142.21 206.123 142.391 205.871C143.301 204.607 143.828 203.07 144.756 201.705C144.882 201.519 145.027 201.346 145.189 201.19C146.676 199.75 149.224 200.044 149.131 202.912Z" fill="#FFB8B8"/>
<path d="M152.993 206.587C153.069 206.352 153.132 206.113 153.183 205.871C153.226 205.681 153.262 205.495 153.291 205.305C153.48 204.055 153.477 202.776 153.774 201.548C154.193 199.789 155.451 197.708 154.416 196.229C155.221 196.064 155.981 195.724 156.641 195.233C157.257 194.696 157.615 193.765 157.243 193.034C156.874 192.314 155.874 191.838 156.01 191.039C156.078 190.786 156.198 190.549 156.361 190.344C156.905 189.487 157.186 188.491 157.17 187.476C157.154 186.462 156.842 185.474 156.272 184.635C155.946 184.169 155.544 183.761 155.247 183.274C154.922 182.678 154.673 182.044 154.505 181.386C153.471 178.054 151.945 174.893 149.98 172.01C149.544 171.455 149.206 170.83 148.98 170.161C148.848 169.437 148.821 168.698 148.901 167.966C148.973 165.072 147.891 162.246 146.332 159.81C146.218 159.631 146.099 159.456 145.981 159.28C144.476 157.063 142.609 155.118 140.75 153.188C139.983 153.546 139.306 153.779 138.908 154.524C138.713 154.944 138.593 155.395 138.553 155.856C138.045 159.402 137.604 162.969 137.26 166.533C137.088 168.335 136.912 170.151 137.117 171.949C137.321 173.747 137.934 175.548 139.152 176.884C139.915 177.722 140.882 178.346 141.71 179.119C141.843 179.245 141.972 179.374 142.097 179.506C142.694 180.141 143.223 180.836 143.677 181.58C145.663 184.787 146.583 188.539 146.307 192.3C146.257 192.978 146.167 193.652 146.038 194.32C145.881 195.276 145.558 196.197 145.085 197.042C144.709 197.662 144.215 198.203 143.874 198.844C143.534 199.485 143.373 200.284 143.709 200.925C144.215 200.924 144.716 201.014 145.189 201.19C146.305 201.62 147.274 202.359 147.984 203.321C148.246 203.667 148.483 204.031 148.693 204.41C148.959 204.882 149.196 205.37 149.403 205.871C149.489 206.068 149.571 206.272 149.65 206.476C149.668 206.512 149.683 206.549 149.693 206.587H152.993Z" fill="#2F2E41"/>
<path d="M123.698 144.273L116.101 147.585L114.318 147.761L106.219 146.001L106.576 153.206L114.494 149.544L116.277 149.368L124.76 151.408L123.698 144.273Z" fill="#EF0F2A"/>
<path d="M138.93 205.871C139.009 206.107 139.077 206.347 139.138 206.587H141.796C142.011 206.363 142.21 206.123 142.391 205.871H138.93ZM68.7053 48.6341V206.587H167.777V48.6341H68.7053ZM167.06 205.871H69.4219V49.3504H167.06V205.871ZM138.93 205.871C139.009 206.107 139.077 206.347 139.138 206.587H141.796C142.011 206.363 142.21 206.123 142.391 205.871H138.93Z" fill="white"/>
<path d="M101.258 117.737L101.319 117.429C101.337 117.338 103.091 108.179 98.5727 99.5979L98.2458 98.9772L98.9404 99.0765C99.1399 99.105 103.702 99.8366 106.973 107.036C107.26 105.939 107.549 103.631 106.651 99.7434L106.523 99.1898L107.078 99.3131C107.251 99.3514 111.187 100.279 112.748 105.059L118.945 99.817V108.332C120.612 107.484 125.722 105.204 128.973 107.235L129.469 107.545L128.967 107.846C128.925 107.871 124.932 110.292 124.14 112.742C125.073 112.75 127.297 112.782 129.5 112.914C135.156 113.253 135.63 113.904 135.63 114.488V114.692L135.454 114.796C135.353 114.855 125.421 120.774 125.201 125.392L125.179 125.867L101.258 117.737ZM123.685 113.456H123.262L123.331 113.039C123.725 110.681 126.813 108.406 128.073 107.567C124.523 105.999 118.824 109.205 118.764 109.239L118.228 109.545V101.362L112.364 106.322L112.216 105.78C111.188 102.013 108.627 100.632 107.484 100.192C108.663 105.838 107.365 108.09 107.307 108.186L106.941 108.798L106.669 108.138C104.299 102.385 101.031 100.555 99.5818 100.006C103.308 107.691 102.335 115.61 102.075 117.258L124.535 124.892C125.253 120.463 132.976 115.477 134.744 114.389C133.653 113.809 128.384 113.456 123.685 113.456Z" fill="#EFD90F"/>
<path d="M96.4458 95.493C96.4458 95.2389 96.5212 94.9906 96.6624 94.7793C96.8036 94.568 97.0043 94.4033 97.2392 94.3061C97.474 94.2089 97.7324 94.1834 97.9817 94.233C98.2311 94.2826 98.4601 94.4049 98.6398 94.5846C98.8195 94.7643 98.9419 94.9932 98.9915 95.2424C99.0411 95.4916 99.0157 95.7499 98.9184 95.9847C98.8211 96.2194 98.6564 96.4201 98.445 96.5612C98.2337 96.7024 97.9852 96.7778 97.731 96.7778C97.3903 96.7774 97.0636 96.6419 96.8226 96.4011C96.5817 96.1602 96.4462 95.8337 96.4458 95.493ZM97.1624 95.493C97.1624 95.6054 97.1958 95.7153 97.2582 95.8088C97.3207 95.9023 97.4095 95.9751 97.5134 96.0182C97.6173 96.0612 97.7317 96.0724 97.8419 96.0505C97.9522 96.0286 98.0536 95.9744 98.1331 95.8949C98.2126 95.8155 98.2668 95.7142 98.2887 95.6039C98.3106 95.4937 98.2994 95.3794 98.2563 95.2755C98.2133 95.1717 98.1404 95.0829 98.0469 95.0204C97.9534 94.958 97.8435 94.9247 97.731 94.9247C97.5803 94.9248 97.4357 94.9848 97.3291 95.0913C97.2226 95.1979 97.1626 95.3423 97.1624 95.493Z" fill="#EF0F2A"/>
<path d="M105.715 95.493C105.715 95.2389 105.79 94.9906 105.932 94.7793C106.073 94.568 106.274 94.4033 106.508 94.3061C106.743 94.2089 107.002 94.1834 107.251 94.233C107.5 94.2826 107.729 94.4049 107.909 94.5846C108.089 94.7643 108.211 94.9932 108.261 95.2424C108.31 95.4916 108.285 95.7499 108.188 95.9847C108.09 96.2194 107.926 96.4201 107.714 96.5612C107.503 96.7024 107.254 96.7778 107 96.7778C106.66 96.7774 106.333 96.6419 106.092 96.4011C105.851 96.1602 105.715 95.8337 105.715 95.493ZM106.432 95.493C106.432 95.6054 106.465 95.7153 106.528 95.8088C106.59 95.9023 106.679 95.9751 106.783 96.0182C106.887 96.0612 107.001 96.0724 107.111 96.0505C107.222 96.0286 107.323 95.9744 107.402 95.8949C107.482 95.8155 107.536 95.7142 107.558 95.6039C107.58 95.4937 107.569 95.3794 107.526 95.2755C107.483 95.1717 107.41 95.0829 107.316 95.0204C107.223 94.958 107.113 94.9247 107 94.9247C106.85 94.9248 106.705 94.9848 106.598 95.0913C106.492 95.1979 106.432 95.3423 106.432 95.493Z" fill="#EF0F2A"/>
<path d="M119.155 97.8096C119.155 97.5555 119.231 97.3071 119.372 97.0958C119.513 96.8845 119.714 96.7199 119.949 96.6226C120.184 96.5254 120.442 96.5 120.691 96.5495C120.941 96.5991 121.17 96.7215 121.349 96.9011C121.529 97.0808 121.651 97.3097 121.701 97.5589C121.751 97.8082 121.725 98.0665 121.628 98.3012C121.531 98.536 121.366 98.7366 121.155 98.8778C120.943 99.019 120.695 99.0943 120.44 99.0943C120.1 99.0939 119.773 98.9585 119.532 98.7176C119.291 98.4768 119.156 98.1502 119.155 97.8096ZM119.872 97.8096C119.872 97.922 119.905 98.0319 119.968 98.1254C120.03 98.2188 120.119 98.2917 120.223 98.3347C120.327 98.3777 120.441 98.389 120.551 98.367C120.662 98.3451 120.763 98.291 120.843 98.2115C120.922 98.132 120.976 98.0307 120.998 97.9205C121.02 97.8102 121.009 97.6959 120.966 97.5921C120.923 97.4882 120.85 97.3994 120.756 97.337C120.663 97.2745 120.553 97.2412 120.44 97.2412C120.29 97.2414 120.145 97.3013 120.039 97.4079C119.932 97.5144 119.872 97.6589 119.872 97.8096Z" fill="#EF0F2A"/>
<path d="M137.23 113.561C137.23 113.307 137.306 113.059 137.447 112.847C137.588 112.636 137.789 112.472 138.024 112.374C138.259 112.277 138.517 112.252 138.766 112.301C139.016 112.351 139.245 112.473 139.424 112.653C139.604 112.832 139.727 113.061 139.776 113.311C139.826 113.56 139.8 113.818 139.703 114.053C139.606 114.288 139.441 114.488 139.23 114.629C139.018 114.771 138.77 114.846 138.516 114.846C138.175 114.846 137.848 114.71 137.607 114.469C137.366 114.228 137.231 113.902 137.23 113.561ZM137.947 113.561C137.947 113.674 137.98 113.784 138.043 113.877C138.105 113.97 138.194 114.043 138.298 114.086C138.402 114.129 138.516 114.141 138.627 114.119C138.737 114.097 138.838 114.043 138.918 113.963C138.997 113.884 139.051 113.782 139.073 113.672C139.095 113.562 139.084 113.448 139.041 113.344C138.998 113.24 138.925 113.151 138.832 113.089C138.738 113.026 138.628 112.993 138.516 112.993C138.365 112.993 138.22 113.053 138.114 113.159C138.007 113.266 137.947 113.411 137.947 113.561Z" fill="#EF0F2A"/>
<path d="M130.742 105.685C130.742 105.431 130.817 105.183 130.959 104.972C131.1 104.76 131.3 104.596 131.535 104.498C131.77 104.401 132.029 104.376 132.278 104.425C132.527 104.475 132.756 104.597 132.936 104.777C133.116 104.956 133.238 105.185 133.288 105.435C133.337 105.684 133.312 105.942 133.215 106.177C133.117 106.412 132.953 106.612 132.741 106.754C132.53 106.895 132.281 106.97 132.027 106.97C131.686 106.97 131.36 106.834 131.119 106.593C130.878 106.353 130.742 106.026 130.742 105.685ZM131.459 105.685C131.459 105.798 131.492 105.908 131.554 106.001C131.617 106.095 131.706 106.168 131.81 106.211C131.913 106.254 132.028 106.265 132.138 106.243C132.248 106.221 132.35 106.167 132.429 106.087C132.509 106.008 132.563 105.907 132.585 105.796C132.607 105.686 132.596 105.572 132.553 105.468C132.51 105.364 132.437 105.275 132.343 105.213C132.25 105.15 132.14 105.117 132.027 105.117C131.876 105.117 131.732 105.177 131.625 105.284C131.519 105.39 131.459 105.535 131.459 105.685Z" fill="#EF0F2A"/>
</svg>
